<svg xmlns="http://www.w3.org/2000/svg" width="150" viewBox="0 0 150 93.75" height="93.75" version="1.0"><defs><clipPath id="a"><path d="M 14.914062 1.082031 L 135.339844 1.082031 L 135.339844 92.339844 L 14.914062 92.339844 Z M 14.914062 1.082031"/></clipPath></defs><g clip-path="url(#a)"><path fill="#211D1D" d="M 79.3125 46.214844 C 76.925781 48.320312 73.332031 48.320312 70.945312 46.214844 L 30 10.011719 L 120.257812 10.011719 Z M 95.28125 49.601562 L 89.183594 56.082031 L 118.429688 83.433594 L 31.496094 83.433594 L 59.253906 55.972656 L 52.976562 49.660156 L 23.832031 78.496094 L 23.832031 16.433594 L 65.03125 52.863281 C 67.816406 55.328125 71.402344 56.683594 75.128906 56.683594 C 78.855469 56.683594 82.441406 55.328125 85.226562 52.863281 L 126.429688 16.433594 L 126.429688 78.726562 Z M 122.03125 1.121094 L 28.226562 1.121094 C 20.886719 1.121094 14.917969 7.078125 14.917969 14.394531 L 14.917969 79.046875 C 14.917969 86.367188 20.886719 92.320312 28.226562 92.320312 L 122.03125 92.320312 C 129.371094 92.320312 135.34375 86.367188 135.34375 79.046875 L 135.34375 14.394531 C 135.34375 7.078125 129.371094 1.121094 122.03125 1.121094"/></g></svg>