<?xml version="1.0" encoding="UTF-8" standalone="no"?>
<!-- Generator: Adobe Illustrator 19.1.0, SVG Export Plug-In . SVG Version: 6.00 Build 0)  -->

<svg
   version="1.1"
   id="Layer_1"
   x="0px"
   y="0px"
   viewBox="0 0 64 64"
   enable-background="new 0 0 64 64"
   xml:space="preserve"
   sodipodi:docname="email-b.svg"
   inkscape:version="1.1.1 (3bf5ae0d25, 2021-09-20)"
   xmlns:inkscape="http://www.inkscape.org/namespaces/inkscape"
   xmlns:sodipodi="http://sodipodi.sourceforge.net/DTD/sodipodi-0.dtd"
   xmlns="http://www.w3.org/2000/svg"
   xmlns:svg="http://www.w3.org/2000/svg"><defs
   id="defs699" /><sodipodi:namedview
   id="namedview697"
   pagecolor="#ffffff"
   bordercolor="#666666"
   borderopacity="1.0"
   inkscape:pageshadow="2"
   inkscape:pageopacity="0.0"
   inkscape:pagecheckerboard="0"
   showgrid="false"
   inkscape:zoom="9.6343299"
   inkscape:cx="36.691706"
   inkscape:cy="29.166533"
   inkscape:window-width="1808"
   inkscape:window-height="1060"
   inkscape:window-x="108"
   inkscape:window-y="-4"
   inkscape:window-maximized="1"
   inkscape:current-layer="Layer_1" />

<g
   id="g666">
</g>
<g
   id="g668">
</g>
<g
   id="g670">
</g>
<g
   id="g672">
</g>
<g
   id="g674">
</g>
<g
   id="g676">
</g>
<g
   id="g678">
</g>
<g
   id="g680">
</g>
<g
   id="g682">
</g>
<g
   id="g684">
</g>
<g
   id="g686">
</g>
<g
   id="g688">
</g>
<g
   id="g690">
</g>
<g
   id="g692">
</g>
<g
   id="g694">
</g>
<path
   fill="#211d1d"
   d="m 34.138352,30.971512 c -1.26399,1.077079 -3.167214,1.077079 -4.431203,0 L 8.0228064,12.451356 H 55.822694 Z m 8.456936,1.732518 -3.229276,3.315164 15.488522,13.992031 H 8.8151269 L 23.515465,35.963243 20.191028,32.734005 4.756294,47.485384 V 15.736546 l 21.81881,18.636056 c 1.474999,1.260922 3.374086,1.954329 5.347647,1.954329 1.97356,0 3.872647,-0.693407 5.347646,-1.954329 L 59.091277,15.736546 V 47.603284 Z M 56.761895,7.9032475 H 7.0836065 c -3.8871283,0 -7.04813542,3.0473925 -7.04813542,6.7901915 v 33.073705 c 0,3.744796 3.16100712,6.790191 7.04813542,6.790191 H 56.761895 c 3.887126,0 7.050203,-3.045395 7.050203,-6.790191 V 14.693439 c 0,-3.742799 -3.163077,-6.7901915 -7.050203,-6.7901915"
   id="path358"
   style="stroke-width:0.520499" /></svg>
