<?xml version="1.0" encoding="UTF-8" standalone="no"?>
<svg
   width="100%"
   height="100%"
   viewBox="0 0 1024 1024"
   version="1.1"
   xml:space="preserve"
   style="fill-rule:evenodd;clip-rule:evenodd;stroke-linejoin:round;stroke-miterlimit:1.41421;"
   id="svg59"
   sodipodi:docname="github-logo.svg"
   inkscape:version="1.1.1 (3bf5ae0d25, 2021-09-20)"
   xmlns:inkscape="http://www.inkscape.org/namespaces/inkscape"
   xmlns:sodipodi="http://sodipodi.sourceforge.net/DTD/sodipodi-0.dtd"
   xmlns="http://www.w3.org/2000/svg"
   xmlns:svg="http://www.w3.org/2000/svg"><defs
     id="defs63" /><sodipodi:namedview
     id="namedview61"
     pagecolor="#ffffff"
     bordercolor="#666666"
     borderopacity="1.0"
     inkscape:pageshadow="2"
     inkscape:pageopacity="0.0"
     inkscape:pagecheckerboard="0"
     showgrid="false"
     inkscape:zoom="0.83203125"
     inkscape:cx="511.39906"
     inkscape:cy="512"
     inkscape:window-width="1808"
     inkscape:window-height="1060"
     inkscape:window-x="108"
     inkscape:window-y="-4"
     inkscape:window-maximized="1"
     inkscape:current-layer="svg59" /><path
     d="M512,0c-282.88,0 -512,229.12 -512,512c0,226.56 146.56,417.92 350.08,485.76c25.6,4.48 35.2,-10.88 35.2,-24.32c0,-12.16 -0.64,-52.48 -0.64,-95.36c-128.64,23.68 -161.92,-31.36 -172.16,-60.16c-5.76,-14.72 -30.72,-60.16 -52.48,-72.32c-17.92,-9.6 -43.52,-33.28 -0.64,-33.92c40.32,-0.64 69.12,37.12 78.72,52.48c46.08,77.44 119.68,55.68 149.12,42.24c4.48,-33.28 17.92,-55.68 32.64,-68.48c-113.92,-12.8 -232.96,-56.96 -232.96,-252.8c0,-55.68 19.84,-101.76 52.48,-137.6c-5.12,-12.8 -23.04,-65.28 5.12,-135.68c0,0 42.88,-13.44 140.8,52.48c40.96,-11.52 84.48,-17.28 128,-17.28c43.52,0 87.04,5.76 128,17.28c97.92,-66.56 140.8,-52.48 140.8,-52.48c28.16,70.4 10.24,122.88 5.12,135.68c32.64,35.84 52.48,81.28 52.48,137.6c0,196.48 -119.68,240 -233.6,252.8c18.56,16 34.56,46.72 34.56,94.72c0,68.48 -0.64,123.52 -0.64,140.8c0,13.44 9.6,29.44 35.2,24.32c202.24,-67.84 348.8,-259.84 348.8,-485.76c0,-282.88 -229.12,-512 -512,-512Z"
     style="fill:#b09589;fill-opacity:0.72690755"
     id="path57" /></svg>
