<svg xmlns="http://www.w3.org/2000/svg" width="96" viewBox="0 0 96 96" height="96" version="1.0"><defs><clipPath id="a"><path d="M 32 63 L 66 63 L 66 94.257812 L 32 94.257812 Z M 32 63"/></clipPath><clipPath id="b"><path d="M 49 79 L 66 79 L 66 94.257812 L 49 94.257812 Z M 49 79"/></clipPath><clipPath id="c"><path d="M 36 2.007812 L 56 2.007812 L 56 18 L 36 18 Z M 36 2.007812"/></clipPath><clipPath id="d"><path d="M 44 2.007812 L 48 2.007812 L 48 11 L 44 11 Z M 44 2.007812"/></clipPath><clipPath id="e"><path d="M 47 2.007812 L 50 2.007812 L 50 11 L 47 11 Z M 47 2.007812"/></clipPath><clipPath id="f"><path d="M 49 2.007812 L 54 2.007812 L 54 13 L 49 13 Z M 49 2.007812"/></clipPath><clipPath id="g"><path d="M 10.457031 28 L 30 28 L 30 49 L 10.457031 49 Z M 10.457031 28"/></clipPath></defs><g clip-path="url(#a)"><path fill="#EAB196" d="M 65.96875 63.414062 L 65.96875 84.847656 C 65.96875 85.464844 65.910156 86.078125 65.789062 86.683594 C 65.667969 87.289062 65.492188 87.878906 65.253906 88.449219 C 65.019531 89.019531 64.730469 89.5625 64.390625 90.074219 C 64.046875 90.589844 63.660156 91.066406 63.222656 91.5 C 62.789062 91.9375 62.316406 92.328125 61.804688 92.671875 C 61.292969 93.015625 60.75 93.304688 60.183594 93.542969 C 59.613281 93.777344 59.027344 93.957031 58.421875 94.078125 C 57.820312 94.199219 57.210938 94.257812 56.59375 94.257812 L 42.296875 94.257812 C 41.679688 94.257812 41.070312 94.199219 40.46875 94.078125 C 39.863281 93.957031 39.277344 93.777344 38.710938 93.542969 C 38.140625 93.304688 37.601562 93.015625 37.089844 92.671875 C 36.578125 92.328125 36.105469 91.9375 35.667969 91.5 C 35.234375 91.066406 34.84375 90.589844 34.503906 90.074219 C 34.160156 89.5625 33.871094 89.019531 33.636719 88.449219 C 33.402344 87.878906 33.222656 87.289062 33.101562 86.683594 C 32.984375 86.078125 32.921875 85.464844 32.921875 84.847656 L 32.921875 63.414062 Z M 65.96875 63.414062"/></g><g clip-path="url(#b)"><path fill="#DDA18A" d="M 65.96875 79.652344 L 65.96875 84.839844 C 65.96875 85.457031 65.910156 86.070312 65.789062 86.675781 C 65.667969 87.28125 65.492188 87.871094 65.253906 88.441406 C 65.019531 89.011719 64.730469 89.554688 64.390625 90.070312 C 64.046875 90.582031 63.660156 91.058594 63.222656 91.496094 C 62.789062 91.933594 62.316406 92.320312 61.804688 92.664062 C 61.292969 93.007812 60.75 93.296875 60.183594 93.535156 C 59.613281 93.769531 59.027344 93.949219 58.421875 94.070312 C 57.820312 94.191406 57.210938 94.25 56.59375 94.25 L 49.3125 94.25 L 49.265625 94.132812 C 49.265625 94.132812 60.722656 93.191406 65.652344 80.519531 C 65.761719 80.238281 65.867188 79.949219 65.96875 79.652344 Z M 65.96875 79.652344"/></g><path fill="#DDA18A" d="M 65.96875 63.414062 C 65.96875 63.578125 65.863281 63.738281 65.652344 63.898438 C 65.441406 64.058594 65.125 64.210938 64.710938 64.363281 C 64.296875 64.511719 63.789062 64.65625 63.183594 64.792969 C 62.582031 64.925781 61.898438 65.050781 61.128906 65.167969 C 60.363281 65.28125 59.527344 65.386719 58.625 65.476562 C 57.722656 65.566406 56.773438 65.644531 55.769531 65.707031 C 54.769531 65.765625 53.734375 65.816406 52.671875 65.847656 C 51.605469 65.878906 50.53125 65.894531 49.449219 65.894531 C 48.363281 65.894531 47.289062 65.878906 46.222656 65.847656 C 45.160156 65.816406 44.128906 65.765625 43.125 65.707031 C 42.121094 65.644531 41.171875 65.566406 40.269531 65.476562 C 39.367188 65.386719 38.53125 65.28125 37.765625 65.167969 C 37 65.050781 36.3125 64.925781 35.710938 64.792969 C 35.109375 64.65625 34.597656 64.511719 34.183594 64.363281 C 33.769531 64.210938 33.457031 64.058594 33.242188 63.898438 C 33.03125 63.738281 32.925781 63.578125 32.925781 63.414062 C 32.925781 63.25 33.03125 63.089844 33.242188 62.929688 C 33.457031 62.769531 33.769531 62.613281 34.183594 62.464844 C 34.597656 62.3125 35.109375 62.171875 35.710938 62.035156 C 36.3125 61.898438 37 61.773438 37.765625 61.660156 C 38.53125 61.542969 39.367188 61.441406 40.269531 61.351562 C 41.171875 61.261719 42.121094 61.183594 43.125 61.121094 C 44.128906 61.058594 45.160156 61.011719 46.222656 60.980469 C 47.289062 60.949219 48.363281 60.933594 49.449219 60.933594 C 50.53125 60.933594 51.605469 60.949219 52.671875 60.980469 C 53.734375 61.011719 54.769531 61.058594 55.769531 61.121094 C 56.773438 61.183594 57.722656 61.261719 58.625 61.351562 C 59.527344 61.441406 60.363281 61.542969 61.128906 61.660156 C 61.898438 61.773438 62.582031 61.898438 63.183594 62.035156 C 63.789062 62.171875 64.296875 62.3125 64.710938 62.464844 C 65.125 62.613281 65.441406 62.769531 65.652344 62.929688 C 65.863281 63.089844 65.96875 63.25 65.96875 63.414062 Z M 65.96875 63.414062"/><path fill="#A56E53" d="M 44.15625 65.761719 C 43.640625 65.738281 43.140625 65.707031 42.648438 65.671875 C 41.894531 64.21875 41.117188 62.773438 40.320312 61.34375 C 35.625 52.867188 30.324219 44.785156 24.417969 37.101562 L 25.207031 36.488281 C 31.320312 44.3125 36.808594 52.558594 41.671875 61.222656 C 42.527344 62.726562 43.351562 64.238281 44.15625 65.761719 Z M 44.15625 65.761719"/><path fill="#A56E53" d="M 50.808594 60.941406 C 50.714844 62.59375 50.546875 64.25 50.304688 65.890625 C 50.019531 65.890625 49.734375 65.890625 49.445312 65.890625 C 49.308594 65.890625 49.171875 65.890625 49.035156 65.890625 C 49.304688 64.246094 49.492188 62.59375 49.605469 60.929688 C 49.773438 58.453125 49.773438 55.976562 49.605469 53.496094 C 49.421875 50.75 49.03125 48.03125 48.433594 45.34375 C 48.253906 44.535156 48.054688 43.726562 47.835938 42.929688 C 47.734375 42.550781 47.628906 42.171875 47.515625 41.796875 L 48.167969 41.597656 L 48.476562 41.5 C 48.632812 42.015625 48.785156 42.53125 48.929688 43.050781 C 50.164062 47.558594 50.816406 52.148438 50.898438 56.824219 C 50.917969 58.195312 50.886719 59.570312 50.808594 60.941406 Z M 50.808594 60.941406"/><path fill="#A56E53" d="M 65.914062 29.570312 C 64.34375 32.519531 62.777344 35.464844 61.382812 38.476562 C 60.679688 39.988281 60.027344 41.507812 59.429688 43.058594 C 58.835938 44.605469 58.269531 46.175781 57.738281 47.753906 C 57.207031 49.332031 56.710938 50.917969 56.253906 52.519531 C 55.792969 54.121094 55.371094 55.730469 55 57.347656 C 54.714844 58.570312 54.457031 59.796875 54.222656 61.027344 C 53.929688 62.613281 53.679688 64.210938 53.488281 65.808594 C 53.125 65.824219 52.75 65.835938 52.375 65.84375 C 52.566406 64.222656 52.8125 62.609375 53.121094 60.996094 C 53.363281 59.695312 53.640625 58.398438 53.945312 57.109375 C 54.328125 55.472656 54.757812 53.847656 55.226562 52.238281 C 55.695312 50.628906 56.195312 49.015625 56.734375 47.429688 C 57.273438 45.839844 57.84375 44.257812 58.453125 42.695312 C 59.0625 41.128906 59.734375 39.578125 60.445312 38.054688 C 61.867188 35.007812 63.457031 32.054688 65.027344 29.105469 Z M 65.914062 29.570312"/><path fill="#A56E53" d="M 51.242188 35.113281 C 50.3125 37.714844 49.539062 40.359375 48.921875 43.050781 C 48.742188 43.8125 48.582031 44.578125 48.429688 45.34375 C 48.175781 46.640625 47.960938 47.945312 47.777344 49.253906 C 47.242188 53.136719 47.03125 57.039062 47.136719 60.957031 C 47.183594 62.601562 47.289062 64.238281 47.449219 65.875 C 47 65.875 46.554688 65.855469 46.109375 65.84375 C 45.972656 64.230469 45.890625 62.609375 45.863281 60.988281 C 45.78125 56.449219 46.128906 51.941406 46.902344 47.464844 C 47.164062 45.941406 47.476562 44.429688 47.835938 42.929688 C 47.941406 42.484375 48.054688 42.039062 48.171875 41.59375 C 48.769531 39.289062 49.480469 37.015625 50.304688 34.777344 Z M 51.242188 35.113281"/><path fill="#A56E53" d="M 56.902344 61.9375 C 57.257812 61.546875 57.636719 61.183594 58.042969 60.847656 L 59.1875 59.769531 L 60.296875 58.652344 L 61.367188 57.5 C 64.191406 54.363281 66.574219 50.914062 68.511719 47.160156 C 69.480469 45.289062 70.324219 43.363281 71.046875 41.386719 L 71.984375 41.722656 C 71.269531 43.75 70.425781 45.726562 69.453125 47.644531 C 67.488281 51.492188 65.066406 55.023438 62.1875 58.242188 L 61.09375 59.417969 L 59.960938 60.5625 C 59.175781 61.292969 58.433594 62.074219 57.546875 62.6875 Z M 56.902344 61.9375"/><path fill="#A56E53" d="M 51.320312 59.460938 C 49.5625 54.664062 47.742188 49.710938 45.105469 45.253906 C 43.769531 43 42.203125 40.824219 40.679688 38.722656 C 38.441406 35.628906 36.125 32.425781 34.496094 28.875 L 35.40625 28.457031 C 36.988281 31.917969 39.273438 35.078125 41.488281 38.136719 C 43.019531 40.253906 44.609375 42.449219 45.964844 44.742188 C 48.644531 49.277344 50.484375 54.277344 52.257812 59.113281 Z M 51.320312 59.460938"/><path fill="#A56E53" d="M 55.839844 65.347656 C 56.425781 61.066406 57.464844 56.898438 58.953125 52.84375 C 60.445312 48.789062 62.355469 44.945312 64.6875 41.3125 L 65.523438 41.847656 C 63.316406 45.449219 61.527344 49.25 60.148438 53.246094 C 58.773438 57.242188 57.839844 61.339844 57.355469 65.542969 Z M 55.839844 65.347656"/><g clip-path="url(#c)"><path fill="#84A271" d="M 55.203125 7.652344 C 55.164062 8.453125 55.003906 9.226562 54.726562 9.976562 C 54.53125 10.53125 54.300781 11.066406 54.027344 11.585938 C 53.40625 12.800781 52.617188 13.894531 51.65625 14.863281 C 50.121094 16.351562 48.3125 17.335938 46.230469 17.816406 C 44.074219 18.300781 42.277344 17.683594 40.160156 17.285156 C 39.003906 17.0625 37.886719 16.828125 37.101562 15.855469 C 36.394531 14.980469 36.222656 13.753906 36.433594 12.644531 C 36.519531 12.214844 36.648438 11.796875 36.824219 11.394531 C 36.957031 11.085938 37.105469 10.78125 37.273438 10.488281 C 37.449219 10.179688 37.636719 9.882812 37.835938 9.589844 C 38.125 9.152344 38.4375 8.71875 38.765625 8.296875 C 38.96875 8.027344 39.179688 7.765625 39.402344 7.507812 C 40.480469 6.21875 41.714844 5.101562 43.101562 4.15625 C 43.296875 4.027344 43.496094 3.902344 43.695312 3.78125 C 44.566406 3.246094 45.492188 2.824219 46.46875 2.511719 C 46.605469 2.46875 46.742188 2.425781 46.882812 2.390625 C 47.417969 2.242188 47.964844 2.132812 48.519531 2.066406 C 48.640625 2.054688 48.765625 2.039062 48.890625 2.03125 C 49.144531 2.007812 49.402344 2.007812 49.664062 2.007812 C 50.1875 2.011719 50.707031 2.074219 51.214844 2.203125 C 51.835938 2.351562 52.40625 2.605469 52.9375 2.960938 L 53.039062 3.035156 C 53.371094 3.277344 53.667969 3.554688 53.925781 3.875 C 54.511719 4.597656 54.898438 5.414062 55.082031 6.328125 C 55.171875 6.765625 55.214844 7.207031 55.203125 7.652344 Z M 55.203125 7.652344"/></g><path fill="#627454" d="M 40.945312 15.382812 C 40.34375 15.886719 39.546875 15.613281 38.957031 15.222656 C 38.027344 14.59375 37.402344 13.742188 37.078125 12.664062 C 36.945312 12.25 36.859375 11.828125 36.820312 11.394531 C 36.953125 11.085938 37.101562 10.78125 37.273438 10.488281 C 37.625 11.335938 38.035156 12.152344 38.5 12.9375 C 39.113281 13.976562 39.839844 14.851562 40.945312 15.382812 Z M 40.945312 15.382812"/><path fill="#627454" d="M 42.070312 13.921875 C 41.914062 14.191406 41.285156 14.0625 41.074219 13.976562 C 40.144531 13.585938 39.652344 12.164062 39.363281 11.285156 C 39.023438 10.316406 38.824219 9.320312 38.769531 8.292969 C 38.972656 8.027344 39.183594 7.765625 39.40625 7.503906 C 39.707031 9.464844 40.292969 11.40625 41.542969 12.964844 C 41.730469 13.207031 42.265625 13.578125 42.070312 13.921875 Z M 42.070312 13.921875"/><path fill="#627454" d="M 44.222656 11.664062 C 44.117188 12.214844 43.359375 12.609375 42.855469 12.316406 C 41.265625 11.386719 42.070312 8.042969 42.265625 6.683594 C 42.386719 5.789062 42.667969 4.949219 43.101562 4.160156 C 43.296875 4.03125 43.492188 3.90625 43.691406 3.785156 C 43.265625 5.320312 43.300781 6.980469 43.390625 8.574219 C 43.425781 9.191406 43.761719 9.941406 44 10.503906 C 44.15625 10.867188 44.292969 11.269531 44.222656 11.664062 Z M 44.222656 11.664062"/><g clip-path="url(#d)"><path fill="#627454" d="M 47.015625 3.863281 C 47.015625 4.558594 47.003906 5.261719 46.964844 5.957031 C 46.910156 6.9375 47.058594 9.101562 46.308594 9.832031 C 45.613281 10.503906 44.816406 9.964844 44.671875 9.175781 C 44.46875 8.050781 44.761719 6.65625 45.0625 5.578125 C 45.371094 4.480469 45.839844 3.457031 46.46875 2.511719 C 46.605469 2.46875 46.742188 2.425781 46.882812 2.390625 C 46.894531 2.914062 47.011719 3.628906 47.015625 3.863281 Z M 47.015625 3.863281"/></g><g clip-path="url(#e)"><path fill="#627454" d="M 49.847656 3.757812 C 49.796875 5.972656 49.71875 8.285156 48.636719 10.214844 C 48.300781 10.820312 47.765625 11.054688 47.375 10.40625 C 47.058594 9.882812 47.289062 9.304688 47.46875 8.792969 C 47.984375 7.3125 48.515625 5.851562 48.671875 4.277344 C 48.746094 3.53125 48.746094 2.765625 48.890625 2.03125 C 49.144531 2.007812 49.402344 2.007812 49.664062 2.007812 C 49.855469 2.542969 49.863281 3.183594 49.847656 3.757812 Z M 49.847656 3.757812"/></g><g clip-path="url(#f)"><path fill="#627454" d="M 53.054688 5.640625 C 52.914062 6.441406 52.773438 7.242188 52.632812 8.042969 C 52.492188 8.898438 52.328125 9.753906 51.933594 10.515625 C 51.574219 11.191406 51.070312 11.726562 50.417969 12.125 C 50.046875 12.351562 49.429688 12.4375 49.285156 12.023438 C 49.207031 11.804688 49.328125 11.566406 49.441406 11.363281 C 50.277344 9.863281 51.042969 8.289062 51.402344 6.609375 C 51.738281 5.046875 51.488281 3.773438 51.222656 2.25 C 51.222656 2.234375 51.222656 2.21875 51.222656 2.203125 C 51.839844 2.351562 52.414062 2.605469 52.941406 2.960938 L 53.042969 3.035156 C 53.117188 3.265625 53.167969 3.496094 53.199219 3.734375 C 53.277344 4.371094 53.164062 5.011719 53.054688 5.640625 Z M 53.054688 5.640625"/></g><path fill="#627454" d="M 54.726562 9.984375 C 54.808594 9.53125 54.867188 9.074219 54.894531 8.613281 C 54.953125 7.855469 55.015625 7.101562 55.078125 6.335938 C 54.898438 5.421875 54.511719 4.605469 53.921875 3.882812 C 53.964844 4.070312 54.019531 4.261719 54.039062 4.402344 C 54.214844 5.617188 54.246094 6.835938 54.132812 8.058594 C 53.9375 9.828125 53.296875 11.597656 52.085938 12.902344 C 52.890625 12.699219 53.535156 12.257812 54.023438 11.585938 Z M 54.726562 9.984375"/><g clip-path="url(#g)"><path fill="#84A271" d="M 17.039062 33.601562 C 14.46875 35.664062 12.363281 38.390625 11.390625 41.546875 C 10.722656 43.703125 10.601562 45.984375 10.480469 48.242188 L 16.382812 45.644531 C 19.324219 44.347656 22.304688 43.03125 24.832031 41.039062 C 27.359375 39.046875 29.421875 36.265625 29.886719 33.074219 C 30.292969 30.296875 28.640625 27.308594 25.65625 28.714844 C 22.707031 30.101562 19.597656 31.550781 17.039062 33.601562 Z M 17.039062 33.601562"/></g><path fill="#627454" d="M 16.964844 34.730469 C 17.855469 34.171875 18.78125 33.679688 19.746094 33.253906 C 20.222656 33.035156 20.707031 32.824219 21.191406 32.617188 C 21.648438 32.390625 22.125 32.222656 22.621094 32.101562 L 22.636719 32.101562 C 22.722656 32.085938 22.785156 32.042969 22.832031 31.96875 C 22.878906 31.898438 22.894531 31.820312 22.875 31.738281 C 22.855469 31.652344 22.808594 31.589844 22.734375 31.546875 C 22.660156 31.503906 22.582031 31.492188 22.5 31.515625 C 21.96875 31.667969 21.460938 31.875 20.972656 32.140625 C 20.496094 32.375 20.023438 32.605469 19.546875 32.851562 C 18.59375 33.332031 17.675781 33.875 16.796875 34.484375 C 15.914062 35.097656 15.128906 35.816406 14.441406 36.644531 C 13.75 37.472656 13.242188 38.402344 12.921875 39.433594 C 13.289062 38.429688 13.832031 37.53125 14.550781 36.746094 C 15.265625 35.964844 16.070312 35.292969 16.964844 34.730469 Z M 16.964844 34.730469"/><path fill="#627454" d="M 25.855469 33.9375 C 25.855469 33.925781 25.855469 33.910156 25.84375 33.898438 C 25.804688 33.796875 25.738281 33.722656 25.640625 33.675781 C 25.539062 33.632812 25.441406 33.625 25.335938 33.660156 C 25.234375 33.699219 25.160156 33.765625 25.109375 33.863281 C 25.0625 33.960938 25.054688 34.0625 25.089844 34.164062 C 25.925781 36.539062 25.371094 39.453125 23.582031 41.429688 C 24.601562 40.496094 25.308594 39.371094 25.710938 38.046875 C 26.132812 36.691406 26.179688 35.320312 25.855469 33.9375 Z M 25.855469 33.9375"/><path fill="#627454" d="M 27.867188 34.523438 C 27.824219 33.851562 27.628906 33.226562 27.277344 32.65625 L 27.261719 32.632812 C 27.210938 32.574219 27.144531 32.539062 27.066406 32.527344 C 26.984375 32.519531 26.914062 32.539062 26.851562 32.585938 C 26.785156 32.636719 26.75 32.699219 26.734375 32.777344 C 26.722656 32.859375 26.738281 32.929688 26.785156 32.996094 C 27.128906 33.46875 27.339844 33.996094 27.421875 34.574219 C 27.511719 35.167969 27.492188 35.757812 27.367188 36.34375 C 27.234375 36.941406 27.035156 37.511719 26.765625 38.058594 C 26.492188 38.605469 26.1875 39.136719 25.855469 39.652344 C 26.230469 39.164062 26.578125 38.652344 26.894531 38.121094 C 27.21875 37.582031 27.46875 37.011719 27.652344 36.414062 C 27.839844 35.796875 27.910156 35.164062 27.867188 34.523438 Z M 27.867188 34.523438"/><path fill="#627454" d="M 23.441406 34.113281 C 23.4375 34.210938 23.40625 34.300781 23.351562 34.378906 C 23.347656 34.386719 23.34375 34.390625 23.339844 34.394531 C 23.382812 34.414062 23.429688 34.4375 23.472656 34.464844 C 23.464844 34.347656 23.453125 34.230469 23.441406 34.113281 Z M 24.390625 33.679688 C 24.390625 33.667969 24.390625 33.65625 24.390625 33.644531 C 24.359375 33.519531 24.289062 33.421875 24.183594 33.351562 C 24.074219 33.277344 23.957031 33.253906 23.832031 33.273438 C 23.707031 33.289062 23.601562 33.347656 23.519531 33.449219 C 23.4375 33.546875 23.398438 33.660156 23.402344 33.789062 L 23.421875 33.949219 C 23.390625 33.839844 23.328125 33.75 23.234375 33.683594 C 23.171875 33.640625 23.097656 33.609375 23.023438 33.597656 C 23.234375 33.425781 23.441406 33.246094 23.636719 33.050781 C 23.636719 33.050781 23.636719 33.039062 23.652344 33.035156 C 23.71875 32.953125 23.746094 32.859375 23.738281 32.753906 C 23.730469 32.644531 23.6875 32.558594 23.609375 32.484375 C 23.527344 32.414062 23.4375 32.378906 23.332031 32.382812 C 23.226562 32.386719 23.132812 32.421875 23.058594 32.5 C 22.199219 33.453125 21.050781 34.15625 19.878906 34.796875 C 19.359375 35.078125 18.828125 35.355469 18.304688 35.636719 C 17.625 36 16.980469 36.414062 16.359375 36.871094 C 14.109375 38.539062 12.472656 40.683594 11.457031 43.300781 C 12.011719 42.054688 12.726562 40.914062 13.601562 39.875 C 14.472656 38.839844 15.46875 37.949219 16.589844 37.195312 C 17.535156 36.550781 18.578125 36.066406 19.628906 35.570312 L 20.152344 35.320312 C 20.894531 34.976562 21.613281 34.578125 22.300781 34.128906 C 21.996094 34.550781 21.683594 34.96875 21.363281 35.378906 C 20.945312 35.929688 20.511719 36.460938 20.0625 36.988281 C 19.1875 38.015625 18.261719 39 17.292969 39.945312 C 16.324219 40.894531 15.308594 41.785156 14.257812 42.652344 C 13.730469 43.085938 13.226562 43.546875 12.75 44.039062 C 12.269531 44.53125 11.867188 45.078125 11.539062 45.683594 C 12.253906 44.507812 13.335938 43.652344 14.417969 42.847656 C 15.496094 42.042969 16.601562 41.210938 17.632812 40.328125 C 18.664062 39.441406 19.667969 38.488281 20.621094 37.503906 C 21.109375 37 21.582031 36.480469 22.042969 35.957031 C 21.957031 36.183594 21.863281 36.414062 21.765625 36.640625 C 21.503906 37.226562 21.210938 37.796875 20.890625 38.351562 C 20.242188 39.476562 19.476562 40.515625 18.597656 41.46875 C 17.707031 42.429688 16.722656 43.285156 15.648438 44.035156 C 14.566406 44.796875 13.441406 45.535156 12.488281 46.457031 C 13.515625 45.617188 14.679688 45.003906 15.820312 44.324219 C 16.988281 43.65625 18.070312 42.875 19.070312 41.972656 C 20.074219 41.054688 20.96875 40.039062 21.75 38.925781 C 22.140625 38.367188 22.503906 37.785156 22.835938 37.1875 C 23.0625 36.769531 23.277344 36.339844 23.476562 35.902344 C 23.382812 37.480469 22.964844 38.96875 22.226562 40.363281 C 21.089844 42.46875 19.441406 44.035156 17.285156 45.0625 C 19.558594 44.167969 21.347656 42.683594 22.65625 40.617188 C 23.679688 38.984375 24.261719 37.207031 24.390625 35.28125 C 24.429688 34.746094 24.429688 34.214844 24.390625 33.679688 Z M 24.390625 33.679688"/><path fill="#84A271" d="M 70.152344 70.53125 C 69.679688 73.960938 68.082031 77.253906 65.96875 80.097656 C 65.953125 80.117188 65.941406 80.136719 65.929688 80.152344 C 65.890625 80.203125 65.851562 80.25 65.8125 80.296875 C 65.773438 80.347656 65.707031 80.445312 65.644531 80.515625 C 64.542969 81.945312 63.324219 83.265625 61.988281 84.476562 C 59.855469 81.785156 56.847656 79.976562 54.128906 77.882812 C 51.414062 75.792969 48.820312 73.152344 48.152344 69.777344 C 47.910156 68.480469 47.90625 67.183594 48.144531 65.886719 C 48.292969 65.039062 48.527344 64.214844 48.84375 63.414062 C 49.039062 62.914062 49.261719 62.429688 49.515625 61.960938 C 49.636719 61.730469 49.765625 61.503906 49.902344 61.289062 C 49.976562 61.167969 50.050781 61.050781 50.125 60.9375 C 50.351562 60.601562 50.589844 60.265625 50.84375 59.941406 C 51.097656 59.621094 51.382812 59.296875 51.679688 58.996094 C 52.351562 58.296875 53.097656 57.691406 53.921875 57.183594 C 54.328125 56.925781 54.75 56.703125 55.191406 56.511719 C 56.074219 56.117188 56.992188 55.875 57.953125 55.773438 C 58.414062 55.726562 58.878906 55.714844 59.34375 55.742188 C 59.574219 55.753906 59.804688 55.777344 60.035156 55.808594 C 60.824219 55.914062 61.589844 56.109375 62.335938 56.386719 C 62.695312 56.519531 63.046875 56.671875 63.390625 56.84375 C 67.148438 58.710938 69.734375 62.664062 70.203125 66.914062 C 70.335938 68.121094 70.320312 69.328125 70.152344 70.53125 Z M 70.152344 70.53125"/><path fill="#627454" d="M 59.375 62.320312 C 59.125 61.480469 58.539062 62.523438 58.242188 62.636719 C 58.078125 62.699219 57.910156 62.734375 57.742188 62.792969 C 57.660156 62.824219 57.582031 62.867188 57.507812 62.917969 C 57.34375 63.042969 57.25 63.207031 57.226562 63.414062 C 57.203125 63.566406 57.226562 63.710938 57.300781 63.851562 C 57.339844 63.914062 57.386719 63.972656 57.445312 64.019531 C 57.476562 64.039062 57.511719 64.054688 57.542969 64.070312 C 57.683594 64.117188 57.828125 64.132812 57.972656 64.121094 C 58.0625 64.125 58.144531 64.105469 58.222656 64.070312 C 58.269531 64.035156 58.3125 63.996094 58.351562 63.953125 C 58.503906 63.769531 58.65625 63.589844 58.816406 63.40625 C 58.890625 63.3125 58.96875 63.214844 59.050781 63.121094 C 59.25 62.902344 59.460938 62.613281 59.375 62.320312 Z M 56.453125 60.761719 L 56.453125 60.773438 L 56.464844 60.765625 Z M 67.464844 68.726562 C 67.304688 68.273438 67.121094 67.835938 66.90625 67.40625 C 66.679688 66.976562 66.421875 66.5625 66.132812 66.167969 C 66.082031 66.097656 66.023438 66.027344 65.96875 65.960938 C 65.714844 65.644531 65.441406 65.351562 65.148438 65.070312 C 64.917969 64.855469 64.675781 64.65625 64.421875 64.46875 C 64.28125 64.359375 64.132812 64.253906 63.984375 64.15625 C 63.558594 63.882812 63.113281 63.648438 62.644531 63.453125 C 62.617188 63.441406 62.589844 63.429688 62.558594 63.421875 C 61.664062 63.054688 60.730469 62.878906 59.761719 62.902344 C 59.753906 62.867188 59.753906 62.871094 59.746094 62.839844 C 60.480469 62.441406 61.261719 62.179688 62.089844 62.050781 C 62.355469 62.007812 62.621094 61.984375 62.890625 61.980469 C 63.660156 61.953125 64.410156 62.0625 65.140625 62.316406 C 66.167969 62.660156 67.035156 63.242188 67.75 64.058594 C 68.460938 64.875 68.902344 65.914062 69.339844 66.933594 C 69.027344 65.871094 68.714844 64.78125 68.066406 63.816406 C 67.742188 63.335938 67.359375 62.90625 66.914062 62.53125 C 66.464844 62.148438 65.976562 61.828125 65.445312 61.574219 C 64.347656 61.050781 63.195312 60.8125 61.984375 60.859375 C 61.015625 60.882812 60.074219 61.066406 59.164062 61.402344 C 59.152344 61.40625 59.144531 61.410156 59.136719 61.417969 C 59.109375 61.425781 59.078125 61.4375 59.046875 61.449219 C 58.910156 61.507812 58.75 61.566406 58.726562 61.535156 C 58.699219 61.507812 58.746094 61.460938 58.792969 61.382812 C 58.859375 61.265625 58.933594 61.152344 59.011719 61.046875 C 59.285156 60.671875 59.589844 60.324219 59.929688 60.011719 C 60.300781 59.703125 60.707031 59.460938 61.152344 59.28125 L 61.261719 59.242188 C 61.402344 59.191406 61.542969 59.148438 61.683594 59.113281 C 62.421875 58.933594 63.160156 58.933594 63.894531 59.113281 C 64.632812 59.289062 65.292969 59.625 65.867188 60.121094 C 65.398438 59.570312 64.839844 59.132812 64.191406 58.820312 C 63.539062 58.503906 62.855469 58.332031 62.132812 58.308594 C 61.945312 58.296875 61.757812 58.296875 61.566406 58.308594 C 61.078125 58.359375 60.621094 58.503906 60.191406 58.75 C 59.484375 59.148438 58.921875 59.699219 58.511719 60.398438 C 58.417969 60.550781 58.328125 60.710938 58.242188 60.882812 C 58.253906 60.789062 58.273438 60.699219 58.285156 60.613281 C 58.617188 58.484375 59.03125 57.679688 59.671875 57.121094 C 60.0625 56.820312 60.5 56.640625 60.988281 56.585938 C 60.425781 56.480469 59.726562 56.628906 59.316406 57.035156 C 59.136719 57.214844 58.976562 57.40625 58.835938 57.613281 C 58.652344 57.886719 58.503906 58.175781 58.398438 58.488281 C 58.214844 58.964844 58.078125 59.457031 57.992188 59.964844 C 57.960938 60.140625 57.9375 60.46875 57.890625 60.636719 C 57.757812 59.921875 57.511719 59.25 57.152344 58.617188 C 57.023438 58.382812 56.875 58.152344 56.71875 57.933594 C 56.3125 57.359375 55.757812 57.082031 55.058594 57.09375 C 54.832031 57.09375 54.609375 57.128906 54.390625 57.191406 C 54.601562 57.191406 54.808594 57.21875 55.011719 57.277344 C 55.652344 57.488281 56.140625 57.886719 56.472656 58.472656 C 56.664062 58.773438 56.820312 59.085938 56.953125 59.410156 C 57.011719 59.570312 57.066406 59.730469 57.109375 59.894531 C 57.175781 60.1875 57.222656 60.480469 57.257812 60.777344 C 57.097656 60.613281 56.921875 60.472656 56.730469 60.355469 C 56.136719 59.957031 55.253906 59.492188 54.824219 59.410156 C 54.734375 59.394531 54.644531 59.375 54.550781 59.363281 C 54.183594 59.304688 53.816406 59.289062 53.449219 59.320312 C 53.179688 59.347656 52.917969 59.402344 52.660156 59.484375 C 52.308594 59.585938 51.984375 59.746094 51.683594 59.957031 C 51.398438 60.164062 51.148438 60.40625 50.933594 60.683594 C 50.890625 60.734375 50.851562 60.785156 50.816406 60.835938 C 50.78125 60.886719 50.761719 60.910156 50.738281 60.945312 C 50.425781 61.402344 50.152344 61.886719 49.917969 62.386719 C 50.195312 62.035156 50.476562 61.683594 50.785156 61.367188 C 50.917969 61.222656 51.0625 61.089844 51.214844 60.964844 C 51.214844 60.964844 51.222656 60.953125 51.226562 60.949219 C 51.8125 60.4375 52.488281 60.210938 53.261719 60.277344 C 53.632812 60.304688 53.988281 60.378906 54.335938 60.507812 C 54.390625 60.535156 54.445312 60.554688 54.503906 60.578125 C 54.839844 60.722656 55.160156 60.894531 55.460938 61.101562 C 55.617188 61.203125 55.765625 61.3125 55.914062 61.425781 C 56.027344 61.53125 56.792969 61.898438 55.835938 61.683594 C 55.390625 61.660156 54.925781 61.636719 54.445312 61.65625 C 54.339844 61.65625 54.230469 61.667969 54.121094 61.675781 C 53.730469 61.703125 53.347656 61.773438 52.972656 61.878906 C 52.949219 61.878906 52.925781 61.898438 52.902344 61.902344 C 52.015625 62.203125 51.257812 62.703125 50.628906 63.402344 C 50.628906 63.402344 50.621094 63.402344 50.621094 63.414062 C 50.550781 63.488281 50.480469 63.566406 50.417969 63.640625 C 49.855469 64.3125 49.402344 65.050781 49.058594 65.855469 C 49.050781 65.867188 49.042969 65.878906 49.039062 65.890625 C 49.007812 65.96875 48.976562 66.042969 48.945312 66.121094 C 48.601562 67.007812 48.429688 67.988281 48.613281 68.910156 C 48.59375 67.96875 48.828125 67.09375 49.308594 66.289062 C 49.390625 66.15625 49.46875 66.023438 49.554688 65.890625 C 49.722656 65.644531 49.890625 65.402344 50.074219 65.167969 C 50.203125 65 50.339844 64.847656 50.480469 64.699219 C 50.640625 64.519531 50.808594 64.351562 50.984375 64.191406 C 51.335938 63.878906 51.71875 63.613281 52.140625 63.40625 C 52.339844 63.304688 52.542969 63.226562 52.757812 63.164062 C 52.898438 63.121094 53.042969 63.089844 53.1875 63.066406 C 53.421875 63.03125 53.65625 63.015625 53.890625 63.023438 C 53.980469 63.023438 54.070312 63.023438 54.160156 63.023438 C 54.15625 63.027344 54.152344 63.027344 54.148438 63.023438 C 54.050781 63.082031 53.957031 63.144531 53.859375 63.207031 C 53.761719 63.269531 53.679688 63.328125 53.589844 63.390625 C 53.230469 63.640625 52.894531 63.921875 52.585938 64.230469 C 52.464844 64.355469 52.347656 64.480469 52.234375 64.613281 C 51.972656 64.941406 51.746094 65.289062 51.546875 65.65625 C 51.511719 65.726562 51.476562 65.792969 51.445312 65.863281 C 51.296875 66.15625 51.171875 66.457031 51.0625 66.765625 C 50.804688 67.511719 50.644531 68.277344 50.585938 69.066406 C 50.472656 70.605469 50.675781 72.105469 51.191406 73.5625 C 51.683594 74.992188 52.480469 76.230469 53.578125 77.269531 C 52.644531 76.132812 52.023438 74.847656 51.71875 73.40625 C 51.410156 72.011719 51.394531 70.613281 51.671875 69.214844 C 51.808594 68.550781 52.027344 67.917969 52.328125 67.3125 C 52.472656 67.015625 52.640625 66.738281 52.828125 66.46875 C 52.992188 66.242188 53.171875 66.027344 53.367188 65.828125 C 53.390625 65.800781 53.414062 65.777344 53.441406 65.757812 C 53.457031 65.738281 53.476562 65.722656 53.5 65.707031 C 53.960938 65.308594 54.476562 64.992188 55.039062 64.753906 C 55.300781 64.632812 55.574219 64.53125 55.855469 64.425781 C 55.777344 64.578125 55.703125 64.734375 55.640625 64.894531 C 55.527344 65.167969 55.433594 65.449219 55.355469 65.734375 C 55.191406 66.3125 55.085938 66.902344 55.039062 67.503906 C 54.964844 68.363281 54.988281 69.222656 55.105469 70.078125 C 55.214844 70.910156 55.390625 71.730469 55.632812 72.53125 C 56.097656 74.128906 56.777344 75.621094 57.472656 77.070312 C 58.171875 78.519531 58.886719 79.960938 59.484375 81.457031 C 59.054688 79.902344 58.496094 78.378906 57.976562 76.863281 C 57.457031 75.34375 56.972656 73.816406 56.703125 72.273438 C 56.4375 70.734375 56.367188 69.175781 56.667969 67.730469 C 56.78125 67.136719 56.96875 66.566406 57.230469 66.019531 C 58.046875 71.484375 59.394531 76.8125 61.277344 82.003906 C 60.0625 76.707031 59.378906 71.339844 59.230469 65.902344 C 59.882812 66.566406 60.453125 67.292969 60.941406 68.085938 C 61.765625 69.441406 62.371094 70.886719 62.765625 72.425781 C 63.167969 74 63.410156 75.597656 63.5 77.222656 C 63.5625 78.035156 63.554688 78.84375 63.464844 79.652344 C 63.378906 80.480469 63.097656 81.234375 62.628906 81.921875 C 63.179688 81.273438 63.546875 80.535156 63.726562 79.703125 C 63.914062 78.886719 64.019531 78.0625 64.042969 77.226562 C 64.136719 75.546875 64.070312 73.875 63.839844 72.210938 C 63.597656 70.5 63.113281 68.859375 62.382812 67.296875 C 62.03125 66.546875 61.621094 65.835938 61.144531 65.164062 C 61.121094 65.132812 61.105469 65.101562 61.082031 65.074219 C 61.191406 65.085938 61.300781 65.101562 61.417969 65.121094 C 62.40625 65.308594 63.296875 65.710938 64.09375 66.324219 C 64.875 66.921875 65.503906 67.648438 65.980469 68.507812 C 66.3125 69.09375 66.574219 69.710938 66.769531 70.359375 C 67.253906 72.042969 67.367188 73.753906 67.105469 75.488281 C 66.890625 77 66.511719 78.46875 65.972656 79.894531 C 65.925781 80.03125 65.875 80.167969 65.816406 80.300781 C 65.78125 80.40625 65.746094 80.507812 65.707031 80.609375 C 65.78125 80.457031 65.859375 80.304688 65.933594 80.152344 C 65.945312 80.128906 65.957031 80.105469 65.972656 80.078125 C 66.699219 78.644531 67.257812 77.148438 67.644531 75.589844 C 67.9375 74.398438 68.070312 73.191406 68.039062 71.964844 C 68.007812 70.855469 67.816406 69.777344 67.46875 68.722656 Z M 67.464844 68.726562"/><path fill="#84A271" d="M 29.675781 43.214844 C 28.171875 44.765625 27.132812 46.710938 26.390625 48.734375 C 24.980469 52.554688 23.941406 56.652344 24.476562 60.753906 C 24.835938 63.476562 25.878906 66.105469 25.90625 68.855469 C 31.347656 65.222656 36.328125 61.039062 40.851562 56.308594 C 44.375 52.609375 48.632812 44.636719 43.945312 40.214844 C 39.957031 36.460938 33.597656 39.636719 30.230469 42.675781 C 30.039062 42.847656 29.855469 43.027344 29.675781 43.214844 Z M 29.675781 43.214844"/><path fill="#627454" d="M 37.703125 47.382812 C 37.65625 47.308594 37.589844 47.269531 37.503906 47.265625 C 37.3125 47.277344 37.136719 47.460938 36.980469 47.554688 C 36.828125 47.652344 36.628906 47.746094 36.550781 47.949219 C 36.519531 48.027344 36.503906 48.109375 36.5 48.195312 C 36.492188 48.273438 36.484375 48.351562 36.476562 48.421875 C 36.464844 48.476562 36.46875 48.527344 36.488281 48.578125 C 36.515625 48.621094 36.550781 48.652344 36.597656 48.667969 C 36.710938 48.71875 36.828125 48.726562 36.949219 48.691406 C 37.074219 48.660156 37.175781 48.582031 37.285156 48.550781 C 37.351562 48.539062 37.414062 48.519531 37.476562 48.5 C 37.609375 48.433594 37.699219 48.328125 37.742188 48.183594 C 37.871094 47.910156 37.855469 47.640625 37.703125 47.382812 Z M 45.421875 44.796875 C 45.417969 44.765625 45.414062 44.734375 45.410156 44.707031 C 45.367188 44.425781 45.292969 44.15625 45.179688 43.898438 C 45.0625 43.625 44.886719 43.390625 44.660156 43.199219 C 44.535156 43.105469 44.402344 43.023438 44.261719 42.957031 C 43.867188 42.773438 43.453125 42.675781 43.019531 42.671875 C 41.300781 42.621094 39.601562 43.535156 38.453125 44.769531 L 38.265625 44.96875 C 38.277344 44.925781 38.292969 44.882812 38.304688 44.839844 C 38.546875 43.960938 38.742188 43.09375 39.132812 42.320312 C 39.519531 41.546875 40.125 40.867188 40.941406 40.59375 C 41.367188 40.457031 41.792969 40.453125 42.21875 40.582031 C 42.464844 40.660156 42.6875 40.78125 42.886719 40.945312 C 43.03125 41.070312 43.152344 41.210938 43.242188 41.378906 C 43.132812 41.128906 42.96875 40.921875 42.75 40.753906 C 42.601562 40.632812 42.4375 40.535156 42.257812 40.464844 C 41.808594 40.285156 41.347656 40.246094 40.875 40.351562 C 40.40625 40.464844 39.988281 40.683594 39.621094 40.996094 C 39.253906 41.304688 38.945312 41.664062 38.695312 42.074219 C 38.320312 42.714844 38.015625 43.386719 37.78125 44.089844 C 37.769531 43.898438 37.746094 43.703125 37.703125 43.515625 C 37.632812 43.191406 37.507812 42.890625 37.324219 42.617188 C 37.136719 42.34375 36.898438 42.117188 36.617188 41.945312 C 36.347656 41.789062 36.058594 41.675781 35.757812 41.609375 C 34.558594 41.359375 33.414062 41.511719 32.320312 42.074219 C 31.601562 42.433594 30.988281 42.925781 30.480469 43.554688 C 30.257812 43.832031 30.066406 44.132812 29.910156 44.449219 C 30.085938 44.152344 30.292969 43.875 30.527344 43.621094 C 31.0625 43.039062 31.695312 42.601562 32.425781 42.300781 C 33.464844 41.855469 34.53125 41.785156 35.621094 42.089844 C 36.121094 42.226562 36.511719 42.515625 36.792969 42.953125 C 37.023438 43.414062 37.105469 43.898438 37.035156 44.40625 C 36.988281 44.816406 36.90625 45.214844 36.792969 45.609375 C 36.722656 45.335938 36.617188 45.078125 36.476562 44.832031 C 36.292969 44.511719 36.050781 44.242188 35.75 44.019531 C 35.46875 43.808594 35.160156 43.648438 34.824219 43.542969 C 34.503906 43.433594 34.175781 43.375 33.839844 43.363281 C 33.1875 43.347656 32.5625 43.464844 31.957031 43.714844 C 31.605469 43.855469 31.265625 44.019531 30.9375 44.207031 C 30.738281 44.316406 30.539062 44.4375 30.347656 44.558594 C 30.238281 44.628906 30.132812 44.703125 30.011719 44.78125 C 29.625 45.042969 29.253906 45.332031 28.90625 45.648438 C 28.460938 46.050781 28.0625 46.496094 27.710938 46.984375 C 27.578125 47.167969 27.460938 47.363281 27.347656 47.558594 C 27.167969 47.882812 27.015625 48.21875 26.894531 48.566406 C 27.03125 48.273438 27.191406 47.992188 27.371094 47.726562 C 27.519531 47.507812 27.675781 47.296875 27.847656 47.097656 C 28.234375 46.65625 28.660156 46.265625 29.128906 45.917969 C 29.5 45.644531 29.886719 45.398438 30.289062 45.179688 C 30.390625 45.121094 30.492188 45.070312 30.597656 45.011719 C 30.820312 44.902344 31.042969 44.796875 31.265625 44.695312 C 31.5625 44.566406 31.863281 44.460938 32.167969 44.375 C 32.6875 44.21875 33.214844 44.167969 33.75 44.230469 C 34.253906 44.292969 34.695312 44.492188 35.074219 44.828125 C 35.417969 45.152344 35.601562 45.550781 35.621094 46.023438 C 35.640625 46.320312 35.621094 46.621094 35.5625 46.914062 C 35.183594 46.652344 34.769531 46.457031 34.320312 46.339844 C 33.671875 46.191406 33.015625 46.167969 32.355469 46.261719 C 32.335938 46.257812 32.316406 46.257812 32.296875 46.261719 C 31.925781 46.3125 31.558594 46.394531 31.199219 46.507812 C 30.929688 46.585938 30.671875 46.683594 30.414062 46.796875 C 29.816406 47.054688 29.269531 47.390625 28.765625 47.808594 C 28.292969 48.207031 27.851562 48.636719 27.445312 49.105469 C 27.03125 49.585938 26.652344 50.089844 26.304688 50.617188 C 25.976562 51.121094 25.679688 51.644531 25.40625 52.179688 C 25.363281 52.265625 25.324219 52.355469 25.28125 52.445312 C 25.183594 52.640625 25.097656 52.835938 25.015625 53.035156 C 24.890625 53.328125 24.777344 53.621094 24.679688 53.917969 C 24.761719 53.742188 24.847656 53.570312 24.933594 53.398438 C 25.039062 53.179688 25.160156 52.964844 25.28125 52.753906 C 25.308594 52.703125 25.335938 52.652344 25.367188 52.605469 C 25.734375 51.980469 26.144531 51.386719 26.59375 50.820312 C 26.847656 50.507812 27.113281 50.203125 27.390625 49.914062 C 27.941406 49.339844 28.550781 48.832031 29.21875 48.390625 C 30.003906 47.855469 30.871094 47.519531 31.8125 47.382812 C 32.019531 47.355469 32.222656 47.332031 32.425781 47.324219 C 32.65625 47.3125 32.882812 47.316406 33.113281 47.339844 C 33.425781 47.367188 33.730469 47.429688 34.027344 47.53125 C 34.351562 47.644531 34.660156 47.789062 34.957031 47.96875 C 34.519531 47.996094 34.085938 48.050781 33.652344 48.136719 C 33.277344 48.210938 32.890625 48.304688 32.507812 48.425781 C 31.714844 48.644531 30.972656 48.980469 30.289062 49.433594 C 28.914062 50.445312 27.835938 51.707031 27.050781 53.226562 C 26.3125 54.6875 25.84375 56.234375 25.652344 57.863281 C 25.460938 59.449219 25.457031 61.035156 25.636719 62.621094 C 25.625 61.046875 25.792969 59.492188 26.140625 57.953125 C 26.480469 56.441406 27.070312 55.035156 27.910156 53.734375 C 28.738281 52.476562 29.804688 51.464844 31.101562 50.707031 C 31.808594 50.289062 32.554688 49.960938 33.339844 49.726562 C 33.734375 49.609375 34.132812 49.535156 34.542969 49.5 C 34.65625 49.488281 34.773438 49.480469 34.890625 49.480469 C 34.824219 49.554688 34.753906 49.632812 34.679688 49.710938 C 34.65625 49.738281 34.625 49.765625 34.597656 49.796875 C 34.367188 50.027344 34.105469 50.253906 33.832031 50.488281 C 33.5 50.777344 33.128906 51.074219 32.765625 51.398438 C 31.484375 52.546875 30.355469 53.917969 29.613281 55.492188 C 29.261719 56.277344 28.996094 57.09375 28.824219 57.9375 C 28.640625 58.753906 28.476562 59.542969 28.230469 60.324219 C 27.753906 61.890625 27.097656 63.410156 26.441406 64.925781 C 27.246094 63.488281 28.054688 62.039062 28.703125 60.496094 C 29.035156 59.722656 29.285156 58.914062 29.539062 58.144531 C 29.773438 57.378906 30.09375 56.648438 30.492188 55.957031 C 31.300781 54.613281 32.28125 53.347656 33.550781 52.429688 C 33.867188 52.195312 34.230469 51.957031 34.601562 51.699219 C 34.730469 51.613281 34.855469 51.53125 34.984375 51.433594 C 34.929688 51.640625 34.875 51.84375 34.816406 52.042969 C 34.679688 52.574219 34.550781 53.085938 34.441406 53.570312 C 34.058594 55.304688 33.683594 57.015625 32.976562 58.574219 C 32.625 59.355469 32.171875 60.070312 31.617188 60.722656 C 31.035156 61.382812 30.421875 62.007812 29.777344 62.601562 C 29.113281 63.214844 28.503906 63.878906 27.953125 64.59375 C 27.398438 65.320312 27.019531 66.128906 26.828125 67.023438 C 27.097656 66.164062 27.539062 65.410156 28.152344 64.753906 C 28.75 64.105469 29.402344 63.515625 30.105469 62.980469 C 30.820312 62.4375 31.511719 61.855469 32.167969 61.242188 C 32.839844 60.585938 33.40625 59.851562 33.867188 59.035156 C 34.796875 57.417969 35.34375 55.65625 35.894531 53.960938 C 35.910156 53.917969 35.925781 53.878906 35.9375 53.835938 C 36.105469 53.332031 36.242188 52.820312 36.347656 52.300781 C 36.496094 51.597656 36.621094 50.84375 36.761719 50.054688 C 37.121094 51.023438 37.472656 52.113281 37.484375 52.183594 C 37.632812 52.894531 37.675781 53.609375 37.617188 54.332031 C 37.570312 54.914062 37.453125 55.484375 37.265625 56.039062 C 36.699219 57.761719 35.539062 59.273438 34.164062 60.683594 C 34.164062 60.683594 33.21875 61.660156 33.21875 61.660156 C 32.902344 61.980469 32.585938 62.300781 32.257812 62.597656 C 31.929688 62.894531 31.578125 63.167969 31.210938 63.414062 C 30.835938 63.667969 30.445312 63.902344 30.074219 64.171875 C 29.886719 64.308594 29.707031 64.460938 29.539062 64.613281 C 29.371094 64.761719 29.191406 64.898438 29.019531 65.042969 C 28.648438 65.316406 28.339844 65.648438 28.085938 66.035156 C 28.367188 65.679688 28.703125 65.378906 29.089844 65.144531 C 29.273438 65.015625 29.46875 64.894531 29.65625 64.757812 C 29.832031 64.625 30.019531 64.5 30.210938 64.386719 C 30.59375 64.15625 31 63.957031 31.402344 63.738281 C 31.8125 63.515625 32.203125 63.265625 32.574219 62.984375 C 32.945312 62.707031 33.296875 62.410156 33.644531 62.121094 L 34.683594 61.230469 C 35.976562 60.125 37.226562 58.902344 38.109375 57.457031 C 38.359375 57.050781 38.574219 56.628906 38.753906 56.1875 C 38.957031 55.695312 39.105469 55.183594 39.203125 54.660156 C 39.523438 52.960938 39.285156 50.792969 38.199219 49.046875 C 38.496094 49.003906 38.792969 48.988281 39.09375 49 C 39.753906 49.019531 40.363281 49.210938 40.917969 49.566406 C 41.191406 49.75 41.425781 49.972656 41.617188 50.242188 C 41.820312 50.519531 41.984375 50.820312 42.121094 51.140625 C 42.417969 51.800781 42.542969 52.492188 42.496094 53.214844 C 42.664062 52.480469 42.648438 51.753906 42.449219 51.027344 C 42.359375 50.660156 42.230469 50.304688 42.0625 49.964844 C 41.882812 49.605469 41.648438 49.289062 41.359375 49.015625 C 40.75 48.464844 40.046875 48.113281 39.246094 47.953125 C 38.898438 47.882812 38.546875 47.839844 38.191406 47.832031 C 38.636719 47.480469 39.113281 47.183594 39.625 46.945312 C 40.378906 46.589844 41.171875 46.410156 42.003906 46.410156 C 42.855469 46.40625 43.636719 46.640625 44.347656 47.109375 C 44.703125 47.34375 44.964844 47.660156 45.140625 48.050781 C 45.320312 48.460938 45.324219 48.878906 45.15625 49.292969 C 45.367188 48.878906 45.402344 48.449219 45.257812 48.007812 C 45.113281 47.566406 44.859375 47.203125 44.5 46.910156 C 43.777344 46.328125 42.953125 45.996094 42.027344 45.914062 C 41.109375 45.820312 40.21875 45.933594 39.351562 46.25 C 38.808594 46.441406 38.289062 46.691406 37.796875 46.996094 C 37.9375 46.8125 38.054688 46.667969 38.097656 46.609375 C 38.523438 46.050781 38.992188 45.53125 39.5 45.042969 C 40.484375 44.105469 41.644531 43.320312 43.03125 43.195312 C 43.535156 43.140625 44.011719 43.234375 44.457031 43.476562 C 44.609375 43.578125 44.738281 43.707031 44.84375 43.855469 C 44.882812 43.914062 44.925781 43.972656 44.964844 44.039062 C 45.085938 44.257812 45.175781 44.488281 45.238281 44.730469 C 45.371094 45.253906 45.410156 45.785156 45.359375 46.324219 C 45.464844 45.816406 45.484375 45.308594 45.421875 44.792969 Z M 45.421875 44.796875"/><path fill="#84A271" d="M 67.269531 18.464844 C 70.007812 17.996094 73.074219 19.355469 74.769531 21.824219 C 76.460938 24.296875 77.085938 27.355469 77.296875 30.351562 C 77.484375 32.984375 77.3125 35.847656 75.664062 37.90625 C 74.730469 39.070312 73.371094 39.921875 72.75 41.273438 C 70.355469 39.277344 67.84375 37.386719 65.777344 35.054688 C 63.710938 32.726562 62.082031 29.847656 61.851562 26.730469 C 61.707031 24.839844 62.109375 23.074219 63.066406 21.4375 C 64.105469 19.679688 65.628906 18.746094 67.269531 18.464844 Z M 67.269531 18.464844"/><path fill="#627454" d="M 60.84375 39.765625 C 61.117188 39.296875 61.507812 38.964844 62.015625 38.773438 C 63.332031 38.351562 64.746094 38.792969 66.113281 38.96875 C 67.292969 39.125 68.488281 39.082031 69.679688 39.125 C 70.527344 39.15625 71.394531 39.234375 72.171875 39.582031 C 72.945312 39.929688 73.625 40.59375 73.800781 41.433594 C 73.882812 41.785156 73.847656 42.121094 73.695312 42.449219 C 73.484375 42.789062 73.203125 43.050781 72.84375 43.226562 C 71.777344 43.839844 70.570312 44.152344 69.375 44.425781 C 67.941406 44.753906 66.507812 44.738281 65.078125 44.378906 C 64.265625 44.160156 63.496094 43.699219 63.132812 42.921875 C 63.066406 42.777344 62.582031 41.339844 62.796875 41.34375 C 62.238281 41.332031 61.707031 41.203125 61.203125 40.957031 C 60.625 40.660156 60.609375 40.199219 60.84375 39.765625 Z M 60.84375 39.765625"/><path fill="#7C9968" d="M 49.082031 36.421875 C 51.394531 40.53125 55.457031 43.335938 59.628906 45.496094 C 60.546875 44.132812 61.140625 42.640625 61.417969 41.019531 C 61.691406 39.398438 61.617188 37.789062 61.203125 36.199219 C 60.851562 34.90625 60.273438 33.679688 60.03125 32.363281 C 59.785156 31.074219 59.863281 29.742188 59.757812 28.4375 C 59.410156 24.191406 54.992188 18.539062 50.53125 22.101562 C 46.46875 25.339844 46.777344 32.328125 49.082031 36.421875 Z M 49.082031 36.421875"/><path fill="#627454" d="M 51.882812 23.167969 C 52.613281 23.445312 53.324219 23.769531 54.011719 24.140625 C 54.691406 24.507812 55.339844 24.886719 55.996094 25.285156 C 56.671875 25.679688 57.277344 26.167969 57.808594 26.742188 C 58.351562 27.332031 58.664062 28.023438 58.746094 28.820312 C 58.554688 28.082031 58.164062 27.472656 57.574219 26.992188 C 56.992188 26.535156 56.359375 26.175781 55.675781 25.910156 C 54.988281 25.625 54.285156 25.347656 53.59375 25.105469 C 52.90625 24.863281 52.203125 24.664062 51.488281 24.515625 Z M 51.882812 23.167969"/><path fill="#627454" d="M 53.027344 26.527344 C 54.152344 27.519531 55.214844 28.570312 56.21875 29.679688 C 57.230469 30.800781 58.121094 32.011719 58.882812 33.316406 C 59.644531 34.621094 60.195312 36.011719 60.542969 37.484375 C 60.890625 38.945312 60.945312 40.417969 60.710938 41.902344 C 60.792969 40.429688 60.589844 39 60.105469 37.605469 C 59.636719 36.242188 58.972656 34.972656 58.125 33.804688 C 57.277344 32.644531 56.324219 31.589844 55.257812 30.632812 C 54.1875 29.671875 53.070312 28.773438 51.898438 27.941406 Z M 53.027344 26.527344"/><path fill="#627454" d="M 53.105469 30.332031 C 55.941406 34.417969 57.914062 38.890625 59.023438 43.746094 C 57.375 39.171875 54.9375 35.070312 51.703125 31.449219 Z M 53.105469 30.332031"/><path fill="#627454" d="M 51.609375 22.960938 C 52.808594 22.660156 54 22.699219 55.175781 23.078125 C 56.292969 23.425781 57.234375 24.042969 58.003906 24.925781 C 57.121094 24.257812 56.132812 23.871094 55.03125 23.765625 C 54 23.65625 53.015625 23.832031 52.082031 24.285156 Z M 51.609375 22.960938"/><path fill="#7C9968" d="M 26.234375 18.578125 C 25.230469 19.222656 24.238281 19.910156 23.4375 20.792969 C 22.601562 21.722656 21.992188 22.84375 21.460938 23.984375 C 19.714844 27.71875 18.652344 31.640625 18.28125 35.75 C 20.179688 35.496094 22.085938 35.246094 24.003906 35.273438 C 25.109375 35.292969 26.210938 35.410156 27.316406 35.375 C 30.480469 35.28125 33.511719 33.960938 36.113281 32.144531 C 37.09375 31.457031 38.453125 30.609375 39.214844 29.675781 C 41.195312 27.234375 41.851562 24.011719 40.660156 21.042969 C 39.875 19.082031 38.953125 16.972656 36.808594 16.210938 C 35.210938 15.640625 33.347656 15.644531 31.703125 16.007812 C 29.730469 16.449219 27.929688 17.488281 26.234375 18.578125 Z M 26.234375 18.578125"/><path fill="#627454" d="M 34.882812 23.992188 C 34.730469 24.03125 34.640625 24.222656 34.515625 24.308594 C 34.335938 24.398438 34.144531 24.453125 33.941406 24.476562 C 33.890625 24.484375 33.847656 24.503906 33.804688 24.535156 C 33.75 24.589844 33.722656 24.65625 33.722656 24.734375 C 33.722656 24.8125 33.75 24.878906 33.804688 24.933594 C 33.925781 25.039062 34.0625 25.082031 34.222656 25.066406 C 34.367188 25.066406 34.515625 25.03125 34.667969 25.03125 C 34.820312 25.0625 34.96875 25.046875 35.117188 24.988281 C 35.179688 24.945312 35.230469 24.890625 35.265625 24.820312 C 35.421875 24.539062 35.355469 23.878906 34.882812 23.992188 Z M 38.40625 21.894531 C 38.488281 21.867188 38.574219 21.84375 38.65625 21.828125 C 38.71875 21.8125 38.78125 21.804688 38.847656 21.796875 C 39.441406 21.726562 39.992188 21.851562 40.496094 22.175781 L 40.558594 22.210938 L 40.503906 22.160156 C 40.082031 21.761719 39.585938 21.527344 39.011719 21.457031 C 38.945312 21.449219 38.878906 21.441406 38.816406 21.4375 C 38.648438 21.425781 38.480469 21.433594 38.3125 21.453125 C 37.980469 21.5 37.667969 21.605469 37.371094 21.765625 L 37.285156 21.8125 C 37.296875 21.78125 37.308594 21.75 37.320312 21.714844 C 37.347656 21.648438 37.371094 21.585938 37.394531 21.511719 C 37.53125 21.132812 37.625 20.738281 37.671875 20.335938 C 37.699219 20.105469 37.703125 19.875 37.683594 19.644531 C 37.660156 19.398438 37.617188 19.160156 37.542969 18.925781 C 37.410156 18.464844 37.15625 18.085938 36.78125 17.78125 C 37.09375 18.121094 37.28125 18.519531 37.351562 18.976562 C 37.414062 19.410156 37.394531 19.84375 37.28125 20.269531 C 37.09375 20.980469 36.710938 21.625 36.289062 22.257812 C 36.328125 22.011719 36.347656 21.765625 36.351562 21.515625 C 36.355469 21.148438 36.328125 20.785156 36.273438 20.425781 C 36.214844 20.070312 36.121094 19.71875 35.996094 19.378906 C 35.871094 19.046875 35.71875 18.726562 35.53125 18.417969 C 35.433594 18.273438 35.34375 18.121094 35.230469 17.980469 C 35.121094 17.835938 34.996094 17.707031 34.863281 17.585938 C 34.601562 17.339844 34.304688 17.15625 33.96875 17.027344 C 33.636719 16.90625 33.296875 16.871094 32.949219 16.921875 C 33.640625 16.898438 34.261719 17.277344 34.675781 17.765625 C 34.78125 17.886719 34.875 18.019531 34.957031 18.160156 C 35.039062 18.296875 35.109375 18.453125 35.179688 18.601562 C 35.453125 19.203125 35.597656 19.832031 35.613281 20.492188 C 35.628906 21.136719 35.539062 21.765625 35.335938 22.378906 C 35.308594 22.464844 35.269531 22.546875 35.234375 22.644531 C 35.109375 22.035156 34.875 21.46875 34.53125 20.953125 C 34.074219 20.261719 33.488281 19.703125 32.777344 19.28125 C 32.09375 18.886719 31.355469 18.625 30.574219 18.5 C 29.8125 18.382812 29.050781 18.375 28.285156 18.46875 C 29.042969 18.46875 29.78125 18.574219 30.507812 18.78125 C 31.21875 18.988281 31.867188 19.316406 32.457031 19.765625 C 33.023438 20.203125 33.46875 20.742188 33.785156 21.386719 C 34.0625 21.933594 34.199219 22.515625 34.191406 23.128906 C 34.191406 23.121094 34.191406 23.113281 34.175781 23.109375 C 33.832031 22.675781 33.429688 22.300781 32.976562 21.984375 C 32.535156 21.683594 32.066406 21.441406 31.566406 21.253906 C 31.078125 21.078125 30.574219 20.953125 30.058594 20.886719 C 29.558594 20.820312 29.054688 20.800781 28.550781 20.828125 C 27.566406 20.894531 26.605469 21.085938 25.667969 21.398438 C 25.207031 21.542969 24.753906 21.714844 24.3125 21.914062 C 23.867188 22.109375 23.46875 22.378906 23.117188 22.71875 C 23.496094 22.433594 23.917969 22.21875 24.371094 22.078125 C 24.828125 21.945312 25.289062 21.839844 25.753906 21.757812 C 26.675781 21.582031 27.601562 21.527344 28.539062 21.589844 C 28.992188 21.625 29.4375 21.699219 29.875 21.816406 C 30.300781 21.9375 30.710938 22.097656 31.101562 22.304688 C 31.480469 22.503906 31.828125 22.75 32.148438 23.035156 C 32.324219 23.195312 32.484375 23.371094 32.628906 23.558594 C 31.4375 23.390625 30.25 23.390625 29.0625 23.558594 C 27.75 23.753906 26.492188 24.128906 25.292969 24.695312 C 22.929688 25.796875 20.902344 27.582031 19.640625 29.792969 C 20.300781 28.902344 21.0625 28.117188 21.929688 27.433594 C 22.796875 26.75 23.734375 26.1875 24.75 25.753906 C 25.765625 25.320312 26.820312 25.027344 27.910156 24.875 C 29.003906 24.722656 30.097656 24.714844 31.191406 24.851562 C 31.03125 25.371094 30.769531 25.828125 30.394531 26.222656 C 30.023438 26.617188 29.585938 26.90625 29.078125 27.089844 C 28.472656 27.269531 27.859375 27.390625 27.234375 27.457031 C 26.550781 27.546875 25.886719 27.71875 25.242188 27.96875 C 23.953125 28.492188 22.871094 29.292969 21.988281 30.371094 C 21.929688 30.445312 21.875 30.515625 21.820312 30.59375 C 21.4375 31.085938 21.117188 31.621094 20.855469 32.191406 C 20.757812 32.410156 20.671875 32.636719 20.59375 32.863281 C 20.472656 33.222656 20.382812 33.585938 20.320312 33.957031 C 20.421875 33.5625 20.558594 33.179688 20.726562 32.808594 C 20.84375 32.546875 20.976562 32.304688 21.117188 32.054688 C 21.433594 31.523438 21.808594 31.039062 22.238281 30.59375 C 22.433594 30.410156 22.625 30.242188 22.832031 30.074219 C 23.613281 29.410156 24.492188 28.929688 25.46875 28.632812 C 26.074219 28.457031 26.691406 28.355469 27.320312 28.332031 C 28.011719 28.320312 28.695312 28.238281 29.371094 28.09375 C 30.484375 27.800781 31.359375 27.175781 32.003906 26.222656 C 31.996094 26.40625 31.972656 26.59375 31.945312 26.777344 C 31.90625 26.980469 31.851562 27.179688 31.777344 27.371094 C 31.691406 27.570312 31.585938 27.757812 31.464844 27.9375 C 31.175781 28.34375 30.867188 28.730469 30.539062 29.101562 C 30.222656 29.472656 29.886719 29.824219 29.535156 30.15625 L 29.496094 30.195312 C 28.765625 30.898438 27.941406 31.464844 27.023438 31.894531 C 26.082031 32.339844 25.089844 32.542969 24.046875 32.507812 C 25.105469 32.695312 26.148438 32.632812 27.179688 32.316406 C 28.121094 32.03125 29.003906 31.613281 29.820312 31.058594 C 29.902344 31.007812 29.988281 30.949219 30.058594 30.890625 C 30.5 30.582031 30.921875 30.25 31.332031 29.898438 C 31.746094 29.542969 32.140625 29.167969 32.515625 28.773438 C 32.71875 28.546875 32.902344 28.304688 33.0625 28.046875 C 33.25 27.761719 33.40625 27.460938 33.53125 27.144531 C 33.710938 26.628906 33.851562 26.105469 33.957031 25.570312 C 33.96875 25.589844 33.976562 25.609375 33.988281 25.628906 C 34.496094 26.445312 34.703125 27.328125 34.613281 28.285156 C 34.542969 29.292969 34.21875 30.214844 33.640625 31.046875 C 33.035156 31.898438 32.277344 32.582031 31.367188 33.097656 C 30.847656 33.398438 30.304688 33.644531 29.738281 33.835938 C 29.296875 33.992188 28.847656 34.113281 28.390625 34.203125 C 28.828125 34.171875 29.265625 34.113281 29.695312 34.027344 C 30.328125 33.902344 30.941406 33.714844 31.535156 33.460938 C 32.589844 33.027344 33.5 32.394531 34.265625 31.550781 C 35.058594 30.65625 35.574219 29.625 35.808594 28.449219 C 36.007812 27.484375 35.964844 26.527344 35.683594 25.578125 C 35.871094 25.507812 36.058594 25.507812 36.246094 25.578125 C 36.511719 25.667969 36.734375 25.824219 36.910156 26.042969 C 37.273438 26.503906 37.394531 27.222656 37.351562 27.933594 C 37.28125 29.128906 36.925781 30.234375 36.28125 31.25 C 36.113281 31.519531 35.929688 31.773438 35.726562 32.015625 C 35.949219 31.816406 36.160156 31.609375 36.359375 31.382812 C 37.113281 30.519531 37.636719 29.53125 37.929688 28.417969 C 37.964844 28.289062 37.996094 28.15625 38.023438 28.023438 C 38.109375 27.617188 38.144531 27.203125 38.121094 26.789062 C 38.101562 26.332031 37.980469 25.902344 37.765625 25.5 C 37.660156 25.308594 37.53125 25.136719 37.378906 24.980469 C 37.1875 24.78125 36.972656 24.621094 36.726562 24.492188 C 36.714844 24.488281 36.703125 24.484375 36.691406 24.476562 C 36.898438 24.382812 37.109375 24.304688 37.328125 24.238281 C 37.566406 24.164062 37.808594 24.125 38.058594 24.117188 C 38.402344 24.089844 38.71875 24.167969 39.011719 24.351562 C 39.300781 24.53125 39.511719 24.78125 39.640625 25.101562 C 39.761719 25.363281 39.835938 25.640625 39.859375 25.929688 C 39.886719 26.195312 39.890625 26.460938 39.871094 26.730469 C 39.855469 27.007812 39.820312 27.285156 39.789062 27.558594 C 39.976562 27.027344 40.101562 26.484375 40.167969 25.925781 C 40.1875 25.675781 40.179688 25.429688 40.140625 25.183594 C 40.097656 24.84375 39.984375 24.53125 39.804688 24.246094 C 39.796875 24.226562 39.785156 24.207031 39.773438 24.191406 C 39.585938 23.914062 39.347656 23.695312 39.058594 23.527344 C 38.824219 23.394531 38.578125 23.296875 38.3125 23.238281 C 38.296875 23.234375 38.28125 23.234375 38.265625 23.238281 C 38.230469 23.226562 38.1875 23.21875 38.148438 23.210938 C 37.867188 23.164062 37.585938 23.148438 37.304688 23.167969 C 37.214844 23.167969 37.128906 23.183594 37.039062 23.191406 C 37.109375 23.019531 37.199219 22.855469 37.3125 22.703125 C 37.59375 22.320312 37.957031 22.050781 38.40625 21.894531 Z M 38.40625 21.894531"/><path fill="#84A271" d="M 40.140625 14.171875 C 37.996094 16.925781 37.179688 20.558594 37.324219 24.050781 C 37.472656 27.542969 38.511719 30.941406 39.765625 34.203125 C 40.390625 35.832031 41.105469 37.484375 42.3125 38.738281 C 45.425781 41.941406 50.683594 41.527344 54.59375 43.675781 C 54.816406 36.667969 54.742188 29.65625 54.367188 22.640625 C 54.242188 20.3125 54.082031 17.957031 53.359375 15.738281 C 52.492188 13.050781 49.871094 9.136719 46.589844 9.308594 C 43.921875 9.441406 41.652344 12.226562 40.140625 14.171875 Z M 40.140625 14.171875"/><path fill="#627454" d="M 53.339844 25.492188 C 53.214844 25.011719 53.070312 24.53125 52.917969 24.066406 C 52.761719 23.597656 52.609375 23.125 52.4375 22.660156 C 52.101562 21.714844 51.699219 20.800781 51.226562 19.914062 C 50.984375 19.464844 50.710938 19.03125 50.410156 18.617188 C 50.082031 18.164062 49.6875 17.777344 49.226562 17.46875 C 48.960938 17.296875 48.675781 17.175781 48.367188 17.105469 C 48.015625 17.03125 47.667969 17.054688 47.328125 17.175781 C 47.007812 17.304688 46.734375 17.496094 46.5 17.75 C 46.449219 17.804688 46.398438 17.859375 46.355469 17.917969 C 46.359375 17.660156 46.375 17.402344 46.40625 17.148438 C 46.457031 16.644531 46.574219 16.15625 46.765625 15.6875 C 46.859375 15.460938 46.976562 15.246094 47.117188 15.042969 C 47.257812 14.84375 47.421875 14.667969 47.609375 14.515625 C 47.992188 14.195312 48.429688 14.011719 48.925781 13.96875 C 49.167969 13.949219 49.402344 13.980469 49.632812 14.058594 C 49.867188 14.144531 50.089844 14.265625 50.289062 14.417969 C 50.714844 14.738281 51.097656 15.097656 51.445312 15.5 C 52.15625 16.328125 52.671875 17.265625 52.996094 18.308594 C 52.75 17.226562 52.296875 16.242188 51.636719 15.351562 C 51.3125 14.902344 50.9375 14.496094 50.519531 14.128906 C 50.300781 13.933594 50.058594 13.777344 49.792969 13.65625 C 49.511719 13.535156 49.21875 13.476562 48.914062 13.472656 C 48.296875 13.480469 47.742188 13.664062 47.238281 14.019531 C 46.988281 14.191406 46.765625 14.394531 46.570312 14.628906 C 46.382812 14.859375 46.21875 15.105469 46.082031 15.371094 C 45.832031 15.878906 45.65625 16.40625 45.554688 16.964844 C 45.460938 16.394531 45.40625 15.824219 45.386719 15.25 C 45.375 14.84375 45.402344 14.441406 45.464844 14.039062 C 45.519531 13.640625 45.625 13.25 45.777344 12.878906 C 45.933594 12.503906 46.152344 12.175781 46.441406 11.890625 C 46.734375 11.605469 47.078125 11.417969 47.476562 11.324219 C 47.882812 11.230469 48.273438 11.277344 48.648438 11.464844 C 49.015625 11.664062 49.34375 11.910156 49.636719 12.203125 C 49.359375 11.890625 49.039062 11.621094 48.683594 11.394531 C 48.296875 11.175781 47.882812 11.101562 47.445312 11.175781 C 47.007812 11.25 46.621094 11.433594 46.285156 11.71875 C 45.953125 12.011719 45.691406 12.351562 45.5 12.75 C 45.132812 13.542969 44.945312 14.375 44.9375 15.25 C 44.902344 15.683594 44.898438 16.117188 44.917969 16.554688 C 44.941406 16.839844 45.039062 17.5625 45.335938 17.714844 C 45.4375 17.765625 45.566406 17.738281 45.671875 17.777344 C 45.832031 17.867188 45.921875 18.003906 45.9375 18.191406 C 45.953125 18.367188 46.015625 18.523438 46.132812 18.65625 C 46.257812 18.765625 46.46875 18.789062 46.539062 18.933594 C 46.597656 19.050781 46.585938 19.164062 46.503906 19.269531 C 46.367188 19.496094 46.167969 19.59375 45.90625 19.566406 C 45.832031 19.550781 45.765625 19.523438 45.699219 19.484375 C 45.621094 19.433594 45.550781 19.375 45.480469 19.316406 C 45.097656 19.0625 44.683594 18.972656 44.234375 19.050781 C 43.09375 19.199219 42.101562 19.871094 41.390625 20.75 C 40.503906 21.839844 40.042969 23.144531 39.773438 24.4375 C 39.519531 25.734375 39.421875 27.042969 39.476562 28.363281 C 39.519531 29.667969 39.679688 30.957031 39.960938 32.230469 C 39.773438 30.945312 39.703125 29.660156 39.753906 28.363281 C 39.789062 27.078125 39.972656 25.8125 40.308594 24.566406 C 40.644531 23.351562 41.183594 22.175781 42.007812 21.300781 C 42.414062 20.863281 42.890625 20.519531 43.433594 20.277344 C 43.800781 20.121094 44.183594 20.011719 44.578125 19.957031 C 43.882812 20.425781 43.273438 20.984375 42.75 21.636719 C 42.078125 22.503906 41.5625 23.457031 41.210938 24.496094 C 40.863281 25.515625 40.675781 26.566406 40.644531 27.648438 C 40.625 28.714844 40.746094 29.761719 41.011719 30.796875 C 41.269531 31.816406 41.628906 32.796875 42.097656 33.738281 C 42.550781 34.671875 43.078125 35.5625 43.679688 36.414062 C 44.269531 37.261719 44.914062 38.066406 45.621094 38.820312 C 46.328125 39.59375 47.160156 40.1875 48.121094 40.601562 C 47.191406 40.144531 46.394531 39.515625 45.738281 38.714844 C 45.078125 37.933594 44.476562 37.109375 43.9375 36.238281 C 43.394531 35.382812 42.921875 34.484375 42.519531 33.550781 C 42.117188 32.621094 41.8125 31.660156 41.613281 30.664062 C 41.414062 29.683594 41.347656 28.691406 41.417969 27.691406 C 41.492188 26.707031 41.714844 25.753906 42.078125 24.835938 C 42.445312 23.925781 42.945312 23.101562 43.585938 22.359375 C 43.710938 22.222656 43.839844 22.089844 43.96875 21.960938 C 43.808594 22.273438 43.667969 22.59375 43.546875 22.921875 C 43.359375 23.417969 43.21875 23.925781 43.121094 24.445312 C 43.019531 24.957031 42.957031 25.472656 42.9375 25.996094 C 42.839844 28.082031 43.347656 30.078125 44.050781 31.921875 C 44.402344 32.851562 44.808594 33.746094 45.234375 34.628906 C 45.652344 35.519531 46.117188 36.378906 46.636719 37.214844 C 47.152344 38.058594 47.765625 38.824219 48.476562 39.511719 C 49.191406 40.199219 50.015625 40.710938 50.953125 41.042969 C 50.0625 40.644531 49.292969 40.082031 48.644531 39.351562 C 48.003906 38.632812 47.464844 37.84375 47.023438 36.988281 C 46.582031 36.132812 46.191406 35.253906 45.851562 34.351562 C 45.503906 33.449219 45.171875 32.542969 44.902344 31.628906 C 44.363281 29.804688 44.050781 27.90625 44.28125 26.101562 C 44.378906 25.261719 44.597656 24.453125 44.929688 23.675781 C 44.90625 24.511719 44.941406 25.339844 45.042969 26.167969 C 45.304688 28.261719 45.851562 30.28125 46.679688 32.21875 C 47.507812 34.125 48.523438 35.925781 49.730469 37.617188 C 50.316406 38.457031 50.949219 39.273438 51.597656 40.066406 C 52.25 40.859375 52.921875 41.628906 53.617188 42.378906 C 52.996094 41.5625 52.390625 40.742188 51.8125 39.902344 C 51.230469 39.0625 50.679688 38.207031 50.152344 37.339844 C 49.101562 35.605469 48.230469 33.789062 47.535156 31.882812 C 46.847656 29.996094 46.4375 28.054688 46.300781 26.054688 C 46.210938 24.609375 46.277344 23.167969 46.492188 21.738281 C 46.867188 22.746094 47.292969 23.71875 47.734375 24.679688 C 48.386719 26.105469 49.0625 27.5 49.636719 28.941406 C 50.796875 31.839844 51.648438 34.828125 52.183594 37.90625 C 51.871094 34.769531 51.238281 31.703125 50.28125 28.703125 C 49.808594 27.191406 49.226562 25.738281 48.6875 24.28125 C 48.128906 22.851562 47.671875 21.390625 47.316406 19.894531 C 47.3125 19.878906 47.308594 19.859375 47.304688 19.84375 C 47.226562 19.59375 47.066406 19.4375 46.8125 19.375 C 46.953125 19.308594 47.054688 19.203125 47.117188 19.0625 L 47.117188 19.046875 C 47.238281 18.71875 47.449219 18.460938 47.75 18.28125 C 47.878906 18.226562 48.011719 18.210938 48.148438 18.234375 C 48.328125 18.261719 48.496094 18.324219 48.652344 18.414062 C 49.019531 18.636719 49.335938 18.917969 49.601562 19.253906 C 49.894531 19.617188 50.164062 20 50.410156 20.398438 C 50.902344 21.21875 51.335938 22.070312 51.703125 22.957031 C 51.890625 23.40625 52.074219 23.851562 52.246094 24.300781 C 52.425781 24.757812 52.582031 25.207031 52.734375 25.667969 C 53.328125 27.523438 53.65625 29.429688 53.714844 31.378906 C 53.777344 33.320312 53.53125 35.300781 53.78125 37.25 C 53.636719 35.289062 53.984375 33.355469 54.03125 31.378906 C 54.074219 29.382812 53.847656 27.421875 53.339844 25.492188 Z M 53.339844 25.492188"/><path fill="#627454" d="M 41 18.980469 C 41.148438 18.859375 41.300781 18.753906 41.457031 18.644531 C 41.605469 18.542969 41.761719 18.457031 41.929688 18.390625 C 42.582031 18.113281 43.304688 18.257812 44.015625 18.5 L 44.046875 18.5 C 44.136719 18.523438 44.226562 18.507812 44.308594 18.460938 C 44.390625 18.410156 44.441406 18.339844 44.464844 18.246094 C 44.488281 18.152344 44.472656 18.066406 44.425781 17.984375 C 44.375 17.902344 44.304688 17.847656 44.214844 17.828125 C 43.8125 17.714844 43.402344 17.648438 42.984375 17.632812 C 42.542969 17.621094 42.121094 17.710938 41.722656 17.90625 C 41.535156 17.996094 41.355469 18.109375 41.1875 18.242188 C 41.03125 18.367188 40.871094 18.496094 40.726562 18.632812 C 40.429688 18.90625 40.160156 19.203125 39.914062 19.523438 C 39.425781 20.160156 39.035156 20.847656 38.742188 21.59375 C 38.597656 21.960938 38.476562 22.339844 38.382812 22.722656 C 38.289062 23.105469 38.21875 23.492188 38.175781 23.882812 C 38.246094 23.496094 38.34375 23.117188 38.464844 22.746094 C 38.585938 22.375 38.730469 22.015625 38.898438 21.664062 C 39.234375 20.964844 39.660156 20.324219 40.179688 19.746094 C 40.429688 19.46875 40.707031 19.210938 41 18.980469 Z M 41 18.980469"/><path fill="#627454" d="M 41.398438 16.140625 C 41.910156 15.921875 42.429688 15.910156 42.949219 16.109375 C 43.441406 16.332031 43.808594 16.6875 44.050781 17.171875 L 44.0625 17.191406 C 44.160156 17.335938 44.285156 17.367188 44.441406 17.289062 C 44.59375 17.210938 44.640625 17.085938 44.578125 16.925781 C 44.632812 16.851562 44.644531 16.769531 44.601562 16.683594 C 44.34375 16.148438 44.125 15.59375 43.953125 15.019531 C 43.78125 14.449219 43.707031 13.863281 43.730469 13.265625 C 43.765625 12.664062 43.9375 12.101562 44.25 11.585938 C 44.570312 11.046875 45.019531 10.667969 45.601562 10.449219 C 44.996094 10.636719 44.511719 10.992188 44.152344 11.519531 C 43.789062 12.039062 43.570312 12.617188 43.496094 13.246094 C 43.429688 13.871094 43.46875 14.484375 43.609375 15.09375 C 43.6875 15.445312 43.785156 15.789062 43.902344 16.128906 C 43.660156 15.929688 43.394531 15.78125 43.09375 15.683594 C 42.46875 15.5 41.863281 15.554688 41.28125 15.851562 C 40.738281 16.125 40.292969 16.511719 39.941406 17.007812 C 39.589844 17.492188 39.367188 18.023438 39.273438 18.613281 C 39.414062 18.046875 39.671875 17.542969 40.050781 17.101562 C 40.417969 16.667969 40.867188 16.347656 41.398438 16.140625 Z M 41.398438 16.140625"/><path fill="#7C9968" d="M 19.183594 46.050781 C 18.410156 47.410156 18.113281 48.988281 17.976562 50.546875 C 17.636719 54.609375 18.292969 58.503906 19.949219 62.226562 C 21.695312 59.734375 23.898438 57.582031 25.507812 55 C 27.117188 52.414062 28.089844 49.175781 27.039062 46.316406 C 25.53125 42.203125 21.179688 42.546875 19.183594 46.050781 Z M 19.183594 46.050781"/><path fill="#627454" d="M 23.035156 45.113281 C 23.035156 45.070312 23.035156 45.011719 22.988281 45.003906 C 22.960938 45.003906 22.941406 45.015625 22.925781 45.035156 C 22.875 45.121094 22.835938 45.210938 22.800781 45.304688 C 22.75 45.363281 22.695312 45.421875 22.632812 45.472656 C 22.476562 45.648438 22.613281 45.976562 22.824219 46.039062 C 22.921875 46.066406 23.023438 46.078125 23.125 46.074219 C 23.183594 46.078125 23.242188 46.066406 23.292969 46.039062 C 23.398438 45.976562 23.402344 45.835938 23.398438 45.714844 C 23.398438 45.40625 23.046875 45.421875 23.035156 45.113281 Z M 24.132812 47.46875 C 24.042969 47.25 23.933594 46.816406 24.039062 46.59375 C 24.097656 46.472656 24.21875 46.410156 24.441406 46.484375 C 24.820312 46.605469 25.070312 47.050781 25.253906 47.375 C 25.605469 47.996094 25.773438 48.722656 25.925781 49.421875 C 25.671875 48.316406 25.644531 46.960938 24.863281 46.0625 C 24.699219 45.875 24.507812 45.726562 24.34375 45.542969 C 24.125 45.296875 23.972656 45.019531 23.882812 44.703125 C 23.78125 44.332031 23.617188 43.890625 23.140625 44.117188 C 22.566406 44.390625 22.222656 44.980469 21.785156 45.410156 C 21.648438 45.523438 21.496094 45.605469 21.328125 45.660156 C 20.871094 45.828125 20.421875 45.925781 20.011719 46.207031 C 19.417969 46.640625 19.003906 47.207031 18.761719 47.902344 C 18.527344 48.558594 18.382812 49.234375 18.320312 49.929688 C 18.242188 50.617188 18.199219 51.296875 18.070312 51.976562 C 18.238281 51.300781 18.3125 50.617188 18.421875 49.941406 C 18.574219 49.144531 18.867188 48.40625 19.300781 47.71875 C 19.546875 47.285156 19.863281 46.84375 20.332031 46.675781 C 20.40625 46.640625 20.480469 46.640625 20.554688 46.664062 C 20.648438 46.730469 20.691406 46.816406 20.679688 46.929688 C 20.703125 47.433594 20.34375 47.683594 20.070312 48.050781 C 19.609375 48.6875 19.300781 49.394531 19.148438 50.171875 C 19 50.917969 18.886719 51.671875 18.8125 52.433594 C 18.738281 53.1875 18.585938 53.929688 18.355469 54.652344 C 18.621094 53.9375 18.804688 53.203125 18.910156 52.445312 C 18.984375 51.902344 19.097656 51.367188 19.246094 50.835938 C 19.429688 50.246094 19.652344 49.675781 19.914062 49.117188 C 20.125 48.671875 20.382812 48.21875 20.804688 47.96875 C 20.871094 47.925781 20.941406 47.902344 21.019531 47.898438 C 21.1875 47.914062 21.285156 48.003906 21.316406 48.167969 C 21.414062 48.515625 21.214844 48.800781 21.03125 49.074219 C 20.804688 49.4375 20.601562 49.808594 20.417969 50.195312 C 20.042969 50.957031 19.738281 51.746094 19.5 52.5625 C 19.050781 54.121094 18.949219 55.652344 18.964844 57.253906 C 18.96875 56.628906 19.011719 56.003906 19.101562 55.382812 C 19.195312 54.734375 19.367188 54.109375 19.609375 53.503906 C 19.878906 52.808594 20.183594 52.125 20.519531 51.460938 C 20.6875 51.125 20.875 50.789062 21.066406 50.453125 C 21.117188 50.359375 21.417969 49.65625 21.566406 49.855469 C 21.585938 49.882812 21.601562 49.914062 21.605469 49.953125 C 21.875 51.203125 21.4375 52.523438 21.152344 53.738281 C 20.917969 54.746094 20.6875 55.773438 20.53125 56.808594 C 20.363281 57.839844 20.308594 58.882812 20.378906 59.929688 C 20.351562 58.882812 20.449219 57.851562 20.660156 56.828125 C 20.859375 55.808594 21.128906 54.8125 21.40625 53.804688 C 21.6875 52.796875 21.976562 51.796875 22.210938 50.777344 C 22.289062 50.394531 22.398438 50.019531 22.542969 49.652344 C 22.570312 49.589844 22.609375 49.535156 22.65625 49.484375 C 22.714844 49.429688 22.78125 49.417969 22.855469 49.449219 C 22.886719 49.464844 22.910156 49.488281 22.929688 49.519531 C 23.25 49.945312 23.328125 50.65625 23.402344 51.167969 C 23.496094 51.804688 23.523438 52.449219 23.492188 53.09375 C 23.425781 54.636719 23.050781 56.167969 22.597656 57.65625 C 23.144531 56.199219 23.621094 54.695312 23.792969 53.121094 C 23.886719 52.324219 23.886719 51.53125 23.792969 50.738281 C 23.746094 50.347656 23.609375 49.960938 23.570312 49.574219 C 23.527344 49.1875 23.507812 48.773438 23.460938 48.371094 C 23.449219 48.273438 23.449219 48.152344 23.539062 48.109375 C 23.792969 47.988281 24.324219 48.816406 24.429688 49.003906 C 24.691406 49.488281 24.894531 50 25.042969 50.53125 C 25.183594 51.042969 25.269531 51.5625 25.300781 52.089844 C 25.300781 52.214844 25.3125 52.34375 25.3125 52.46875 C 25.3125 52.574219 25.3125 52.675781 25.3125 52.777344 C 25.296875 53.128906 25.246094 53.46875 25.152344 53.808594 C 25.261719 53.417969 25.339844 53.027344 25.398438 52.628906 C 25.421875 52.488281 25.433594 52.34375 25.445312 52.203125 C 25.46875 51.964844 25.480469 51.722656 25.480469 51.484375 C 25.492188 50.324219 25.199219 49.246094 24.601562 48.253906 C 24.429688 48.003906 24.273438 47.742188 24.140625 47.46875 Z M 24.132812 47.46875"/><path fill="#627454" d="M 68.65625 23.519531 C 68.539062 23.285156 68.394531 22.847656 68.15625 22.742188 C 68.027344 22.691406 67.902344 22.691406 67.777344 22.738281 C 67.648438 22.78125 67.554688 22.863281 67.484375 22.980469 C 67.417969 23.097656 67.390625 23.222656 67.410156 23.355469 C 67.429688 23.488281 67.488281 23.601562 67.589844 23.691406 C 67.757812 23.859375 68.054688 24.179688 68.304688 24.179688 C 68.46875 24.1875 68.601562 24.128906 68.699219 23.992188 C 68.769531 23.828125 68.757812 23.667969 68.65625 23.519531 Z M 71.949219 24.644531 C 71.984375 24.628906 72.023438 24.625 72.0625 24.632812 C 72.78125 24.730469 73.390625 25.050781 73.882812 25.585938 C 74.46875 26.277344 74.78125 27.175781 75.054688 28.027344 C 75.410156 29.140625 75.769531 30.257812 76.128906 31.375 C 75.953125 30.824219 75.976562 30.132812 75.882812 29.558594 C 75.789062 28.984375 75.652344 28.371094 75.546875 27.78125 C 75.328125 26.703125 74.90625 25.710938 74.28125 24.800781 C 73.6875 23.914062 72.816406 23.164062 71.769531 22.9375 C 71.351562 22.84375 69.726562 22.480469 70.839844 21.902344 C 71.800781 21.398438 73.214844 21.605469 74.042969 22.257812 C 74.710938 22.789062 75.171875 23.550781 75.546875 24.332031 C 75.488281 23.75 75.214844 23.210938 74.9375 22.699219 C 74.769531 22.335938 74.542969 22.011719 74.257812 21.730469 C 73.449219 21.015625 72.285156 20.789062 71.269531 21 C 70.742188 21.117188 70.253906 21.367188 69.714844 21.464844 C 69.597656 21.496094 69.480469 21.496094 69.363281 21.464844 C 68.523438 21.191406 69.679688 19.976562 69.984375 19.765625 C 70.507812 19.398438 71.085938 19.25 71.71875 19.316406 C 71.089844 19.132812 70.347656 19.042969 69.828125 19.445312 C 69.683594 19.566406 69.558594 19.699219 69.445312 19.851562 C 69.246094 20.09375 69.046875 20.339844 68.847656 20.585938 C 68.769531 20.691406 68.675781 20.785156 68.566406 20.863281 C 68.445312 20.945312 68.320312 20.957031 68.1875 20.90625 C 68.066406 20.851562 68.019531 20.90625 68.09375 20.800781 C 67.992188 20.09375 68.097656 19.421875 68.414062 18.78125 C 68.457031 18.675781 68.527344 18.589844 68.621094 18.523438 C 68.320312 18.640625 68.09375 18.839844 67.9375 19.125 C 67.777344 19.4375 67.675781 19.769531 67.632812 20.117188 C 67.597656 20.339844 67.539062 20.597656 67.339844 20.679688 C 67.136719 20.765625 66.90625 20.613281 66.730469 20.46875 C 66.296875 20.105469 65.949219 19.945312 65.363281 19.996094 C 65.144531 20.011719 64.933594 20.070312 64.734375 20.164062 C 64.472656 20.316406 64.25 20.511719 64.0625 20.753906 C 63.960938 20.839844 63.902344 20.953125 63.886719 21.089844 C 64.078125 20.824219 64.3125 20.613281 64.59375 20.453125 C 64.972656 20.269531 65.429688 20.316406 65.828125 20.4375 C 66.078125 20.496094 66.292969 20.617188 66.476562 20.796875 C 66.675781 21.003906 66.714844 21.234375 66.589844 21.496094 C 66.382812 21.855469 66.019531 21.664062 65.71875 21.609375 C 65.328125 21.527344 64.945312 21.566406 64.578125 21.71875 C 64.003906 22.03125 63.527344 22.457031 63.152344 22.992188 C 62.660156 23.664062 62.226562 24.429688 62.242188 25.257812 C 62.433594 24.71875 62.699219 24.214844 63.039062 23.753906 C 63.363281 23.261719 63.707031 22.761719 64.179688 22.421875 C 64.507812 22.203125 64.871094 22.085938 65.265625 22.0625 C 65.5 22.050781 65.851562 22.15625 65.964844 22.382812 C 66.210938 22.886719 65.449219 22.980469 65.183594 23.144531 C 64.894531 23.324219 64.625 23.535156 64.378906 23.769531 C 63.882812 24.257812 63.492188 24.816406 63.207031 25.453125 C 62.9375 26.035156 62.773438 26.648438 62.703125 27.285156 C 62.550781 28.800781 62.945312 30.3125 63.664062 31.65625 C 63.847656 32.003906 64.050781 32.339844 64.273438 32.664062 L 64.3125 32.71875 C 64.304688 32.695312 64.292969 32.671875 64.28125 32.652344 C 64.09375 32.238281 63.9375 31.8125 63.816406 31.375 C 63.546875 30.414062 63.449219 29.4375 63.515625 28.441406 C 63.585938 27.449219 63.816406 26.492188 64.210938 25.578125 C 64.535156 24.828125 65.015625 23.992188 65.929688 23.949219 C 65.980469 23.945312 66.03125 23.953125 66.078125 23.96875 C 66.554688 24.191406 65.886719 25.007812 65.71875 25.253906 C 65.242188 25.964844 64.921875 26.667969 64.898438 27.539062 C 64.878906 28.179688 64.84375 28.796875 64.859375 29.425781 C 64.867188 29.773438 64.894531 30.121094 64.941406 30.46875 C 64.976562 30.703125 65.019531 30.933594 65.066406 31.160156 C 65.449219 33.054688 66.269531 34.734375 67.523438 36.203125 C 66.574219 33.808594 66.128906 31.328125 66.183594 28.753906 C 66.203125 27.96875 66.269531 27.164062 66.574219 26.4375 C 66.648438 26.269531 66.800781 26.070312 66.976562 26.136719 C 67.039062 26.171875 67.089844 26.222656 67.121094 26.289062 C 67.402344 26.757812 67.34375 27.34375 67.316406 27.886719 C 67.199219 30.171875 67.675781 32.328125 68.75 34.347656 C 68.972656 34.765625 69.164062 35.132812 69.359375 35.464844 L 69.527344 35.726562 C 69.699219 36 69.890625 36.261719 70.097656 36.511719 C 70.292969 36.738281 70.503906 36.957031 70.726562 37.160156 C 70.589844 36.96875 70.492188 36.757812 70.441406 36.527344 C 70.335938 36.191406 70.253906 35.789062 70.1875 35.484375 C 70.160156 35.367188 70.136719 35.269531 70.113281 35.183594 C 70.097656 35.132812 70.085938 35.078125 70.070312 35.015625 C 70.070312 34.992188 70.058594 34.96875 70.050781 34.945312 C 69.867188 34.273438 69.714844 33.59375 69.574219 32.910156 C 69.410156 32.058594 69.242188 31.199219 69.132812 30.332031 C 69.085938 29.957031 68.730469 28.445312 69.039062 28.160156 C 69.515625 27.714844 70.066406 29.425781 70.140625 29.671875 C 70.492188 30.789062 71 31.867188 71.339844 32.992188 C 71.449219 33.347656 71.546875 33.714844 71.648438 34.089844 C 71.738281 34.425781 71.832031 34.761719 71.941406 35.097656 C 71.980469 35.21875 72.023438 35.339844 72.066406 35.460938 C 72.1875 35.808594 72.335938 36.140625 72.515625 36.460938 C 72.5625 36.546875 72.667969 36.652344 72.753906 36.59375 C 72.796875 36.550781 72.816406 36.5 72.816406 36.441406 C 72.835938 36.207031 72.851562 35.980469 72.851562 35.75 C 72.863281 35.621094 72.863281 35.492188 72.863281 35.363281 C 72.859375 34.9375 72.832031 34.511719 72.785156 34.089844 C 72.777344 33.976562 72.761719 33.867188 72.742188 33.753906 C 72.625 32.933594 72.445312 32.125 72.199219 31.332031 C 71.886719 30.292969 71.34375 29.332031 71.066406 28.285156 C 71.003906 28.039062 70.820312 27.460938 70.988281 27.238281 C 71.3125 26.824219 72.09375 27.75 72.253906 27.976562 C 72.5625 28.433594 72.820312 28.914062 73.027344 29.425781 C 73.496094 30.515625 73.738281 31.6875 73.945312 32.851562 C 73.988281 33.085938 74.027344 33.324219 74.070312 33.5625 C 74.226562 34.511719 74.375 35.464844 74.496094 36.417969 C 74.640625 36.046875 74.757812 35.660156 74.839844 35.269531 C 74.949219 34.773438 75.011719 34.273438 75.027344 33.765625 C 75.03125 33.695312 75.03125 33.625 75.027344 33.554688 C 75.03125 32.4375 74.867188 31.347656 74.527344 30.285156 C 74.203125 29.28125 73.792969 28.3125 73.292969 27.382812 C 72.949219 26.703125 72.566406 26.042969 72.148438 25.40625 L 72.09375 25.324219 C 71.96875 25.15625 71.835938 24.949219 71.890625 24.742188 C 71.898438 24.703125 71.917969 24.671875 71.949219 24.648438 Z M 71.949219 24.644531"/><path fill="#627454" d="M 83.796875 46.957031 C 83.019531 48.332031 81.835938 49.417969 80.671875 50.484375 L 77.371094 53.511719 C 76.296875 51.546875 74.875 49.886719 73.097656 48.53125 C 71.683594 47.460938 70.09375 46.628906 68.734375 45.484375 C 67.375 44.339844 66.222656 42.773438 66.152344 40.992188 C 66.050781 38.632812 67.824219 36.625 69.703125 35.195312 C 69.773438 35.140625 69.84375 35.089844 69.917969 35.039062 C 70.5625 34.574219 71.261719 34.214844 72.015625 33.964844 C 73.070312 33.609375 74.152344 33.476562 75.257812 33.570312 C 75.804688 33.613281 76.34375 33.703125 76.878906 33.835938 C 77.082031 33.890625 77.28125 33.949219 77.480469 34.003906 C 78.285156 34.265625 79.050781 34.613281 79.777344 35.046875 C 80.90625 35.707031 81.914062 36.519531 82.800781 37.480469 C 85.058594 39.929688 85.433594 44.0625 83.796875 46.957031 Z M 83.796875 46.957031"/><path fill="#84A271" d="M 69.757812 40.214844 C 69.574219 41.070312 69.390625 41.941406 69.402344 42.824219 C 69.402344 43.046875 69.570312 44.921875 69.808594 44.992188 C 69.289062 44.84375 68.914062 44.398438 68.574219 43.980469 C 67.75 42.964844 67.53125 41.460938 67.84375 40.1875 C 68.042969 39.339844 68.46875 38.628906 69.117188 38.050781 C 69.78125 37.46875 70.554688 37.195312 71.433594 37.234375 C 71.589844 37.234375 71.777344 37.289062 71.820312 37.4375 C 71.863281 37.585938 71.6875 37.757812 71.53125 37.847656 C 70.984375 38.171875 70.429688 38.542969 70.117188 39.101562 C 69.945312 39.453125 69.824219 39.824219 69.757812 40.214844 Z M 69.757812 40.214844"/><path fill="#84A271" d="M 71.1875 40.828125 C 70.980469 41.496094 70.9375 42.175781 71.050781 42.867188 C 71.191406 43.957031 71.53125 44.984375 72.070312 45.941406 C 72.585938 46.863281 73.269531 47.679688 73.949219 48.488281 C 74.105469 48.6875 74.273438 48.875 74.449219 49.050781 C 73.5 47.105469 72.53125 45.089844 72.421875 42.925781 C 72.394531 42.375 72.425781 41.824219 72.511719 41.28125 C 72.570312 40.902344 72.929688 40.144531 72.765625 39.789062 C 72.339844 38.839844 71.328125 40.417969 71.1875 40.828125 Z M 71.1875 40.828125"/><path fill="#84A271" d="M 74.144531 42.992188 C 74.199219 43.539062 74.320312 44.074219 74.5 44.59375 L 76.636719 51.597656 L 76.003906 45.34375 C 75.902344 44.335938 75.789062 43.277344 75.335938 42.351562 C 75.199219 42.070312 74.921875 41.445312 74.496094 41.550781 C 74.074219 41.652344 74.125 42.660156 74.144531 42.992188 Z M 74.144531 42.992188"/><path fill="#84A271" d="M 77.445312 44.601562 C 78.117188 47.253906 77.9375 50.046875 77.613281 52.761719 C 78.953125 50.289062 79.90625 47.398438 79.191406 44.675781 C 79.035156 44.121094 78.84375 43.578125 78.625 43.046875 C 78.464844 42.59375 78.253906 42.167969 77.980469 41.773438 C 77.492188 41.125 76.671875 40.988281 76.753906 42.015625 C 76.828125 42.882812 77.230469 43.761719 77.445312 44.601562 Z M 77.445312 44.601562"/><path fill="#84A271" d="M 79.070312 41.394531 C 79.726562 42.152344 80.097656 43.125 80.277344 44.109375 C 80.429688 45.105469 80.484375 46.109375 80.445312 47.113281 C 80.4375 47.953125 80.417969 48.820312 80.121094 49.609375 C 80.769531 48.570312 81.421875 47.519531 81.816406 46.355469 C 82.210938 45.195312 82.335938 43.898438 81.910156 42.746094 C 81.636719 42.015625 81.164062 41.378906 80.664062 40.78125 C 80.320312 40.328125 79.910156 39.941406 79.445312 39.617188 C 79.03125 39.359375 77.9375 38.929688 77.839844 39.765625 C 77.769531 40.355469 78.730469 40.996094 79.070312 41.394531 Z M 79.070312 41.394531"/><path fill="#84A271" d="M 69.835938 35.585938 C 70.765625 35.246094 71.691406 35.261719 72.609375 35.628906 C 72.8125 35.699219 72.988281 35.816406 73.132812 35.980469 C 73.289062 36.160156 73.316406 36.359375 73.210938 36.574219 C 73.070312 36.8125 72.738281 36.84375 72.460938 36.824219 C 71.515625 36.753906 70.582031 36.402344 69.640625 36.53125 C 68.878906 36.53125 68.105469 37.242188 67.496094 37.617188 C 68.167969 36.695312 68.730469 35.996094 69.835938 35.585938 Z M 69.835938 35.585938"/><path fill="#84A271" d="M 74.203125 35.984375 C 74.203125 36.027344 74.191406 36.0625 74.167969 36.09375 C 74.144531 36.109375 74.117188 36.117188 74.085938 36.121094 C 73.707031 36.144531 73.453125 35.753906 73.148438 35.527344 C 72.875 35.347656 72.574219 35.230469 72.253906 35.171875 C 71.8125 35.046875 71.359375 34.964844 70.902344 34.925781 C 70.570312 34.910156 70.285156 35 69.96875 35.03125 C 69.953125 35.03125 69.933594 35.03125 69.917969 35.03125 C 70.5625 34.566406 71.261719 34.207031 72.015625 33.953125 C 72.476562 33.957031 72.898438 34.078125 73.289062 34.320312 C 73.578125 34.496094 73.800781 34.734375 73.964844 35.03125 C 74.128906 35.328125 74.207031 35.648438 74.203125 35.984375 Z M 74.203125 35.984375"/><path fill="#84A271" d="M 76.875 33.835938 C 76.589844 34.015625 76.320312 34.21875 76.0625 34.4375 C 75.757812 34.707031 75.550781 35.046875 75.269531 35.332031 C 74.992188 35.617188 74.824219 35.304688 74.742188 35.015625 C 74.613281 34.628906 74.660156 34.265625 74.886719 33.925781 C 74.996094 33.792969 75.121094 33.671875 75.257812 33.570312 C 75.804688 33.613281 76.34375 33.703125 76.875 33.835938 Z M 76.875 33.835938"/><path fill="#84A271" d="M 79.777344 35.046875 L 78.535156 35.316406 C 77.929688 35.421875 77.347656 35.605469 76.792969 35.863281 C 76.554688 36.003906 76.308594 36.128906 76.050781 36.234375 C 75.871094 36.300781 75.746094 36.371094 75.664062 36.175781 C 75.5625 35.933594 75.746094 35.503906 75.875 35.296875 C 76.015625 35.09375 76.175781 34.910156 76.359375 34.75 C 76.613281 34.507812 76.902344 34.210938 77.238281 34.078125 C 77.316406 34.046875 77.394531 34.027344 77.476562 34.015625 C 78.28125 34.273438 79.050781 34.617188 79.777344 35.046875 Z M 79.777344 35.046875"/><path fill="#84A271" d="M 76.945312 36.558594 C 76.859375 36.625 76.804688 36.714844 76.785156 36.820312 C 76.761719 36.925781 76.773438 37.03125 76.824219 37.125 C 76.945312 37.304688 77.195312 37.320312 77.40625 37.3125 C 78.871094 37.261719 80.359375 36.855469 81.773438 37.234375 C 81.464844 37.152344 81.046875 36.632812 80.726562 36.472656 C 80.292969 36.25 79.832031 36.109375 79.351562 36.046875 C 78.691406 35.957031 77.476562 36.097656 76.945312 36.558594 Z M 76.945312 36.558594"/><path fill="#84A271" d="M 82.578125 41.460938 C 83.214844 42.484375 83.402344 43.722656 83.582031 44.917969 C 83.90625 43.925781 83.972656 42.914062 83.792969 41.890625 C 83.609375 40.863281 83.199219 39.9375 82.554688 39.121094 C 82.207031 38.660156 81.777344 38.292969 81.265625 38.023438 C 80.554688 37.671875 79.664062 37.578125 78.878906 37.628906 C 78.28125 37.671875 77.695312 37.894531 78.410156 38.414062 C 79.101562 38.917969 79.984375 39.183594 80.710938 39.652344 C 81.464844 40.117188 82.089844 40.71875 82.578125 41.460938 Z M 82.578125 41.460938"/><path fill="#84A271" d="M 75.46875 38.515625 C 75.617188 38.117188 75.101562 37.558594 74.707031 37.84375 C 74.316406 38.125 74.375 38.851562 74.933594 38.875 C 75.195312 38.875 75.371094 38.757812 75.46875 38.515625 Z M 75.46875 38.515625"/></svg>